<?xml version="1.0" encoding="utf-8"?>
<!DOCTYPE svg PUBLIC "-//W3C//DTD SVG 1.1//EN" "http://www.w3.org/Graphics/SVG/1.1/DTD/svg11.dtd">
<svg version="1.1" id="Layer_1" xmlns="http://www.w3.org/2000/svg" xmlns:xlink="http://www.w3.org/1999/xlink" x="0px" y="0px"
width="1155px" height="1155px" viewBox="0 0 1155 1155" enable-background="new 0 0 1155 1155" xml:space="preserve">
<rect x="0" y="0" width="1155" height="1155" fill="rgb(255,255,255)" /><g transform="translate(70,70)"><g transform="translate(315,0) scale(0.35,0.35)"><g transform="" style="fill: rgb(0, 0, 0);">
<rect width="100" height="100"/>
</g></g><g transform="translate(350,0) scale(0.35,0.35)"><g transform="" style="fill: rgb(0, 0, 0);">
<rect width="100" height="100"/>
</g></g><g transform="translate(385,0) scale(0.35,0.35)"><g transform="" style="fill: rgb(0, 0, 0);">
<rect width="100" height="100"/>
</g></g><g transform="translate(420,0) scale(0.35,0.35)"><g transform="" style="fill: rgb(0, 0, 0);">
<rect width="100" height="100"/>
</g></g><g transform="translate(490,0) scale(0.35,0.35)"><g transform="" style="fill: rgb(0, 0, 0);">
<rect width="100" height="100"/>
</g></g><g transform="translate(560,0) scale(0.35,0.35)"><g transform="" style="fill: rgb(0, 0, 0);">
<rect width="100" height="100"/>
</g></g><g transform="translate(595,0) scale(0.35,0.35)"><g transform="" style="fill: rgb(0, 0, 0);">
<rect width="100" height="100"/>
</g></g><g transform="translate(630,0) scale(0.35,0.35)"><g transform="" style="fill: rgb(0, 0, 0);">
<rect width="100" height="100"/>
</g></g><g transform="translate(665,0) scale(0.35,0.35)"><g transform="" style="fill: rgb(0, 0, 0);">
<rect width="100" height="100"/>
</g></g><g transform="translate(700,0) scale(0.35,0.35)"><g transform="" style="fill: rgb(0, 0, 0);">
<rect width="100" height="100"/>
</g></g><g transform="translate(280,35) scale(0.35,0.35)"><g transform="" style="fill: rgb(0, 0, 0);">
<rect width="100" height="100"/>
</g></g><g transform="translate(350,35) scale(0.35,0.35)"><g transform="" style="fill: rgb(0, 0, 0);">
<rect width="100" height="100"/>
</g></g><g transform="translate(490,35) scale(0.35,0.35)"><g transform="" style="fill: rgb(0, 0, 0);">
<rect width="100" height="100"/>
</g></g><g transform="translate(525,35) scale(0.35,0.35)"><g transform="" style="fill: rgb(0, 0, 0);">
<rect width="100" height="100"/>
</g></g><g transform="translate(595,35) scale(0.35,0.35)"><g transform="" style="fill: rgb(0, 0, 0);">
<rect width="100" height="100"/>
</g></g><g transform="translate(630,35) scale(0.35,0.35)"><g transform="" style="fill: rgb(0, 0, 0);">
<rect width="100" height="100"/>
</g></g><g transform="translate(700,35) scale(0.35,0.35)"><g transform="" style="fill: rgb(0, 0, 0);">
<rect width="100" height="100"/>
</g></g><g transform="translate(280,70) scale(0.35,0.35)"><g transform="" style="fill: rgb(0, 0, 0);">
<rect width="100" height="100"/>
</g></g><g transform="translate(315,70) scale(0.35,0.35)"><g transform="" style="fill: rgb(0, 0, 0);">
<rect width="100" height="100"/>
</g></g><g transform="translate(350,70) scale(0.35,0.35)"><g transform="" style="fill: rgb(0, 0, 0);">
<rect width="100" height="100"/>
</g></g><g transform="translate(385,70) scale(0.35,0.35)"><g transform="" style="fill: rgb(0, 0, 0);">
<rect width="100" height="100"/>
</g></g><g transform="translate(420,70) scale(0.35,0.35)"><g transform="" style="fill: rgb(0, 0, 0);">
<rect width="100" height="100"/>
</g></g><g transform="translate(490,70) scale(0.35,0.35)"><g transform="" style="fill: rgb(0, 0, 0);">
<rect width="100" height="100"/>
</g></g><g transform="translate(525,70) scale(0.35,0.35)"><g transform="" style="fill: rgb(0, 0, 0);">
<rect width="100" height="100"/>
</g></g><g transform="translate(595,70) scale(0.35,0.35)"><g transform="" style="fill: rgb(0, 0, 0);">
<rect width="100" height="100"/>
</g></g><g transform="translate(665,70) scale(0.35,0.35)"><g transform="" style="fill: rgb(0, 0, 0);">
<rect width="100" height="100"/>
</g></g><g transform="translate(280,105) scale(0.35,0.35)"><g transform="" style="fill: rgb(0, 0, 0);">
<rect width="100" height="100"/>
</g></g><g transform="translate(315,105) scale(0.35,0.35)"><g transform="" style="fill: rgb(0, 0, 0);">
<rect width="100" height="100"/>
</g></g><g transform="translate(350,105) scale(0.35,0.35)"><g transform="" style="fill: rgb(0, 0, 0);">
<rect width="100" height="100"/>
</g></g><g transform="translate(455,105) scale(0.35,0.35)"><g transform="" style="fill: rgb(0, 0, 0);">
<rect width="100" height="100"/>
</g></g><g transform="translate(525,105) scale(0.35,0.35)"><g transform="" style="fill: rgb(0, 0, 0);">
<rect width="100" height="100"/>
</g></g><g transform="translate(595,105) scale(0.35,0.35)"><g transform="" style="fill: rgb(0, 0, 0);">
<rect width="100" height="100"/>
</g></g><g transform="translate(630,105) scale(0.35,0.35)"><g transform="" style="fill: rgb(0, 0, 0);">
<rect width="100" height="100"/>
</g></g><g transform="translate(665,105) scale(0.35,0.35)"><g transform="" style="fill: rgb(0, 0, 0);">
<rect width="100" height="100"/>
</g></g><g transform="translate(700,105) scale(0.35,0.35)"><g transform="" style="fill: rgb(0, 0, 0);">
<rect width="100" height="100"/>
</g></g><g transform="translate(280,140) scale(0.35,0.35)"><g transform="" style="fill: rgb(0, 0, 0);">
<rect width="100" height="100"/>
</g></g><g transform="translate(315,140) scale(0.35,0.35)"><g transform="" style="fill: rgb(0, 0, 0);">
<rect width="100" height="100"/>
</g></g><g transform="translate(350,140) scale(0.35,0.35)"><g transform="" style="fill: rgb(0, 0, 0);">
<rect width="100" height="100"/>
</g></g><g transform="translate(455,140) scale(0.35,0.35)"><g transform="" style="fill: rgb(0, 0, 0);">
<rect width="100" height="100"/>
</g></g><g transform="translate(490,140) scale(0.35,0.35)"><g transform="" style="fill: rgb(0, 0, 0);">
<rect width="100" height="100"/>
</g></g><g transform="translate(525,140) scale(0.35,0.35)"><g transform="" style="fill: rgb(0, 0, 0);">
<rect width="100" height="100"/>
</g></g><g transform="translate(560,140) scale(0.35,0.35)"><g transform="" style="fill: rgb(0, 0, 0);">
<rect width="100" height="100"/>
</g></g><g transform="translate(630,140) scale(0.35,0.35)"><g transform="" style="fill: rgb(0, 0, 0);">
<rect width="100" height="100"/>
</g></g><g transform="translate(700,140) scale(0.35,0.35)"><g transform="" style="fill: rgb(0, 0, 0);">
<rect width="100" height="100"/>
</g></g><g transform="translate(280,175) scale(0.35,0.35)"><g transform="" style="fill: rgb(0, 0, 0);">
<rect width="100" height="100"/>
</g></g><g transform="translate(315,175) scale(0.35,0.35)"><g transform="" style="fill: rgb(0, 0, 0);">
<rect width="100" height="100"/>
</g></g><g transform="translate(420,175) scale(0.35,0.35)"><g transform="" style="fill: rgb(0, 0, 0);">
<rect width="100" height="100"/>
</g></g><g transform="translate(455,175) scale(0.35,0.35)"><g transform="" style="fill: rgb(0, 0, 0);">
<rect width="100" height="100"/>
</g></g><g transform="translate(490,175) scale(0.35,0.35)"><g transform="" style="fill: rgb(0, 0, 0);">
<rect width="100" height="100"/>
</g></g><g transform="translate(595,175) scale(0.35,0.35)"><g transform="" style="fill: rgb(0, 0, 0);">
<rect width="100" height="100"/>
</g></g><g transform="translate(630,175) scale(0.35,0.35)"><g transform="" style="fill: rgb(0, 0, 0);">
<rect width="100" height="100"/>
</g></g><g transform="translate(700,175) scale(0.35,0.35)"><g transform="" style="fill: rgb(0, 0, 0);">
<rect width="100" height="100"/>
</g></g><g transform="translate(280,210) scale(0.35,0.35)"><g transform="" style="fill: rgb(0, 0, 0);">
<rect width="100" height="100"/>
</g></g><g transform="translate(350,210) scale(0.35,0.35)"><g transform="" style="fill: rgb(0, 0, 0);">
<rect width="100" height="100"/>
</g></g><g transform="translate(420,210) scale(0.35,0.35)"><g transform="" style="fill: rgb(0, 0, 0);">
<rect width="100" height="100"/>
</g></g><g transform="translate(490,210) scale(0.35,0.35)"><g transform="" style="fill: rgb(0, 0, 0);">
<rect width="100" height="100"/>
</g></g><g transform="translate(560,210) scale(0.35,0.35)"><g transform="" style="fill: rgb(0, 0, 0);">
<rect width="100" height="100"/>
</g></g><g transform="translate(630,210) scale(0.35,0.35)"><g transform="" style="fill: rgb(0, 0, 0);">
<rect width="100" height="100"/>
</g></g><g transform="translate(700,210) scale(0.35,0.35)"><g transform="" style="fill: rgb(0, 0, 0);">
<rect width="100" height="100"/>
</g></g><g transform="translate(315,245) scale(0.35,0.35)"><g transform="" style="fill: rgb(0, 0, 0);">
<rect width="100" height="100"/>
</g></g><g transform="translate(350,245) scale(0.35,0.35)"><g transform="" style="fill: rgb(0, 0, 0);">
<rect width="100" height="100"/>
</g></g><g transform="translate(385,245) scale(0.35,0.35)"><g transform="" style="fill: rgb(0, 0, 0);">
<rect width="100" height="100"/>
</g></g><g transform="translate(490,245) scale(0.35,0.35)"><g transform="" style="fill: rgb(0, 0, 0);">
<rect width="100" height="100"/>
</g></g><g transform="translate(560,245) scale(0.35,0.35)"><g transform="" style="fill: rgb(0, 0, 0);">
<rect width="100" height="100"/>
</g></g><g transform="translate(595,245) scale(0.35,0.35)"><g transform="" style="fill: rgb(0, 0, 0);">
<rect width="100" height="100"/>
</g></g><g transform="translate(700,245) scale(0.35,0.35)"><g transform="" style="fill: rgb(0, 0, 0);">
<rect width="100" height="100"/>
</g></g><g transform="translate(70,280) scale(0.35,0.35)"><g transform="" style="fill: rgb(0, 0, 0);">
<rect width="100" height="100"/>
</g></g><g transform="translate(175,280) scale(0.35,0.35)"><g transform="" style="fill: rgb(0, 0, 0);">
<rect width="100" height="100"/>
</g></g><g transform="translate(210,280) scale(0.35,0.35)"><g transform="" style="fill: rgb(0, 0, 0);">
<rect width="100" height="100"/>
</g></g><g transform="translate(245,280) scale(0.35,0.35)"><g transform="" style="fill: rgb(0, 0, 0);">
<rect width="100" height="100"/>
</g></g><g transform="translate(280,280) scale(0.35,0.35)"><g transform="" style="fill: rgb(0, 0, 0);">
<rect width="100" height="100"/>
</g></g><g transform="translate(315,280) scale(0.35,0.35)"><g transform="" style="fill: rgb(0, 0, 0);">
<rect width="100" height="100"/>
</g></g><g transform="translate(350,280) scale(0.35,0.35)"><g transform="" style="fill: rgb(0, 0, 0);">
<rect width="100" height="100"/>
</g></g><g transform="translate(385,280) scale(0.35,0.35)"><g transform="" style="fill: rgb(0, 0, 0);">
<rect width="100" height="100"/>
</g></g><g transform="translate(420,280) scale(0.35,0.35)"><g transform="" style="fill: rgb(0, 0, 0);">
<rect width="100" height="100"/>
</g></g><g transform="translate(490,280) scale(0.35,0.35)"><g transform="" style="fill: rgb(0, 0, 0);">
<rect width="100" height="100"/>
</g></g><g transform="translate(560,280) scale(0.35,0.35)"><g transform="" style="fill: rgb(0, 0, 0);">
<rect width="100" height="100"/>
</g></g><g transform="translate(595,280) scale(0.35,0.35)"><g transform="" style="fill: rgb(0, 0, 0);">
<rect width="100" height="100"/>
</g></g><g transform="translate(665,280) scale(0.35,0.35)"><g transform="" style="fill: rgb(0, 0, 0);">
<rect width="100" height="100"/>
</g></g><g transform="translate(700,280) scale(0.35,0.35)"><g transform="" style="fill: rgb(0, 0, 0);">
<rect width="100" height="100"/>
</g></g><g transform="translate(735,280) scale(0.35,0.35)"><g transform="" style="fill: rgb(0, 0, 0);">
<rect width="100" height="100"/>
</g></g><g transform="translate(805,280) scale(0.35,0.35)"><g transform="" style="fill: rgb(0, 0, 0);">
<rect width="100" height="100"/>
</g></g><g transform="translate(840,280) scale(0.35,0.35)"><g transform="" style="fill: rgb(0, 0, 0);">
<rect width="100" height="100"/>
</g></g><g transform="translate(875,280) scale(0.35,0.35)"><g transform="" style="fill: rgb(0, 0, 0);">
<rect width="100" height="100"/>
</g></g><g transform="translate(910,280) scale(0.35,0.35)"><g transform="" style="fill: rgb(0, 0, 0);">
<rect width="100" height="100"/>
</g></g><g transform="translate(945,280) scale(0.35,0.35)"><g transform="" style="fill: rgb(0, 0, 0);">
<rect width="100" height="100"/>
</g></g><g transform="translate(0,315) scale(0.35,0.35)"><g transform="" style="fill: rgb(0, 0, 0);">
<rect width="100" height="100"/>
</g></g><g transform="translate(140,315) scale(0.35,0.35)"><g transform="" style="fill: rgb(0, 0, 0);">
<rect width="100" height="100"/>
</g></g><g transform="translate(350,315) scale(0.35,0.35)"><g transform="" style="fill: rgb(0, 0, 0);">
<rect width="100" height="100"/>
</g></g><g transform="translate(420,315) scale(0.35,0.35)"><g transform="" style="fill: rgb(0, 0, 0);">
<rect width="100" height="100"/>
</g></g><g transform="translate(455,315) scale(0.35,0.35)"><g transform="" style="fill: rgb(0, 0, 0);">
<rect width="100" height="100"/>
</g></g><g transform="translate(490,315) scale(0.35,0.35)"><g transform="" style="fill: rgb(0, 0, 0);">
<rect width="100" height="100"/>
</g></g><g transform="translate(665,315) scale(0.35,0.35)"><g transform="" style="fill: rgb(0, 0, 0);">
<rect width="100" height="100"/>
</g></g><g transform="translate(700,315) scale(0.35,0.35)"><g transform="" style="fill: rgb(0, 0, 0);">
<rect width="100" height="100"/>
</g></g><g transform="translate(770,315) scale(0.35,0.35)"><g transform="" style="fill: rgb(0, 0, 0);">
<rect width="100" height="100"/>
</g></g><g transform="translate(805,315) scale(0.35,0.35)"><g transform="" style="fill: rgb(0, 0, 0);">
<rect width="100" height="100"/>
</g></g><g transform="translate(980,315) scale(0.35,0.35)"><g transform="" style="fill: rgb(0, 0, 0);">
<rect width="100" height="100"/>
</g></g><g transform="translate(0,350) scale(0.35,0.35)"><g transform="" style="fill: rgb(0, 0, 0);">
<rect width="100" height="100"/>
</g></g><g transform="translate(35,350) scale(0.35,0.35)"><g transform="" style="fill: rgb(0, 0, 0);">
<rect width="100" height="100"/>
</g></g><g transform="translate(140,350) scale(0.35,0.35)"><g transform="" style="fill: rgb(0, 0, 0);">
<rect width="100" height="100"/>
</g></g><g transform="translate(175,350) scale(0.35,0.35)"><g transform="" style="fill: rgb(0, 0, 0);">
<rect width="100" height="100"/>
</g></g><g transform="translate(210,350) scale(0.35,0.35)"><g transform="" style="fill: rgb(0, 0, 0);">
<rect width="100" height="100"/>
</g></g><g transform="translate(245,350) scale(0.35,0.35)"><g transform="" style="fill: rgb(0, 0, 0);">
<rect width="100" height="100"/>
</g></g><g transform="translate(315,350) scale(0.35,0.35)"><g transform="" style="fill: rgb(0, 0, 0);">
<rect width="100" height="100"/>
</g></g><g transform="translate(350,350) scale(0.35,0.35)"><g transform="" style="fill: rgb(0, 0, 0);">
<rect width="100" height="100"/>
</g></g><g transform="translate(455,350) scale(0.35,0.35)"><g transform="" style="fill: rgb(0, 0, 0);">
<rect width="100" height="100"/>
</g></g><g transform="translate(490,350) scale(0.35,0.35)"><g transform="" style="fill: rgb(0, 0, 0);">
<rect width="100" height="100"/>
</g></g><g transform="translate(560,350) scale(0.35,0.35)"><g transform="" style="fill: rgb(0, 0, 0);">
<rect width="100" height="100"/>
</g></g><g transform="translate(630,350) scale(0.35,0.35)"><g transform="" style="fill: rgb(0, 0, 0);">
<rect width="100" height="100"/>
</g></g><g transform="translate(665,350) scale(0.35,0.35)"><g transform="" style="fill: rgb(0, 0, 0);">
<rect width="100" height="100"/>
</g></g><g transform="translate(840,350) scale(0.35,0.35)"><g transform="" style="fill: rgb(0, 0, 0);">
<rect width="100" height="100"/>
</g></g><g transform="translate(875,350) scale(0.35,0.35)"><g transform="" style="fill: rgb(0, 0, 0);">
<rect width="100" height="100"/>
</g></g><g transform="translate(910,350) scale(0.35,0.35)"><g transform="" style="fill: rgb(0, 0, 0);">
<rect width="100" height="100"/>
</g></g><g transform="translate(980,350) scale(0.35,0.35)"><g transform="" style="fill: rgb(0, 0, 0);">
<rect width="100" height="100"/>
</g></g><g transform="translate(0,385) scale(0.35,0.35)"><g transform="" style="fill: rgb(0, 0, 0);">
<rect width="100" height="100"/>
</g></g><g transform="translate(105,385) scale(0.35,0.35)"><g transform="" style="fill: rgb(0, 0, 0);">
<rect width="100" height="100"/>
</g></g><g transform="translate(245,385) scale(0.35,0.35)"><g transform="" style="fill: rgb(0, 0, 0);">
<rect width="100" height="100"/>
</g></g><g transform="translate(280,385) scale(0.35,0.35)"><g transform="" style="fill: rgb(0, 0, 0);">
<rect width="100" height="100"/>
</g></g><g transform="translate(455,385) scale(0.35,0.35)"><g transform="" style="fill: rgb(0, 0, 0);">
<rect width="100" height="100"/>
</g></g><g transform="translate(490,385) scale(0.35,0.35)"><g transform="" style="fill: rgb(0, 0, 0);">
<rect width="100" height="100"/>
</g></g><g transform="translate(595,385) scale(0.35,0.35)"><g transform="" style="fill: rgb(0, 0, 0);">
<rect width="100" height="100"/>
</g></g><g transform="translate(665,385) scale(0.35,0.35)"><g transform="" style="fill: rgb(0, 0, 0);">
<rect width="100" height="100"/>
</g></g><g transform="translate(700,385) scale(0.35,0.35)"><g transform="" style="fill: rgb(0, 0, 0);">
<rect width="100" height="100"/>
</g></g><g transform="translate(735,385) scale(0.35,0.35)"><g transform="" style="fill: rgb(0, 0, 0);">
<rect width="100" height="100"/>
</g></g><g transform="translate(770,385) scale(0.35,0.35)"><g transform="" style="fill: rgb(0, 0, 0);">
<rect width="100" height="100"/>
</g></g><g transform="translate(840,385) scale(0.35,0.35)"><g transform="" style="fill: rgb(0, 0, 0);">
<rect width="100" height="100"/>
</g></g><g transform="translate(875,385) scale(0.35,0.35)"><g transform="" style="fill: rgb(0, 0, 0);">
<rect width="100" height="100"/>
</g></g><g transform="translate(945,385) scale(0.35,0.35)"><g transform="" style="fill: rgb(0, 0, 0);">
<rect width="100" height="100"/>
</g></g><g transform="translate(0,420) scale(0.35,0.35)"><g transform="" style="fill: rgb(0, 0, 0);">
<rect width="100" height="100"/>
</g></g><g transform="translate(35,420) scale(0.35,0.35)"><g transform="" style="fill: rgb(0, 0, 0);">
<rect width="100" height="100"/>
</g></g><g transform="translate(70,420) scale(0.35,0.35)"><g transform="" style="fill: rgb(0, 0, 0);">
<rect width="100" height="100"/>
</g></g><g transform="translate(105,420) scale(0.35,0.35)"><g transform="" style="fill: rgb(0, 0, 0);">
<rect width="100" height="100"/>
</g></g><g transform="translate(140,420) scale(0.35,0.35)"><g transform="" style="fill: rgb(0, 0, 0);">
<rect width="100" height="100"/>
</g></g><g transform="translate(210,420) scale(0.35,0.35)"><g transform="" style="fill: rgb(0, 0, 0);">
<rect width="100" height="100"/>
</g></g><g transform="translate(315,420) scale(0.35,0.35)"><g transform="" style="fill: rgb(0, 0, 0);">
<rect width="100" height="100"/>
</g></g><g transform="translate(350,420) scale(0.35,0.35)"><g transform="" style="fill: rgb(0, 0, 0);">
<rect width="100" height="100"/>
</g></g><g transform="translate(420,420) scale(0.35,0.35)"><g transform="" style="fill: rgb(0, 0, 0);">
<rect width="100" height="100"/>
</g></g><g transform="translate(525,420) scale(0.35,0.35)"><g transform="" style="fill: rgb(0, 0, 0);">
<rect width="100" height="100"/>
</g></g><g transform="translate(700,420) scale(0.35,0.35)"><g transform="" style="fill: rgb(0, 0, 0);">
<rect width="100" height="100"/>
</g></g><g transform="translate(735,420) scale(0.35,0.35)"><g transform="" style="fill: rgb(0, 0, 0);">
<rect width="100" height="100"/>
</g></g><g transform="translate(770,420) scale(0.35,0.35)"><g transform="" style="fill: rgb(0, 0, 0);">
<rect width="100" height="100"/>
</g></g><g transform="translate(805,420) scale(0.35,0.35)"><g transform="" style="fill: rgb(0, 0, 0);">
<rect width="100" height="100"/>
</g></g><g transform="translate(875,420) scale(0.35,0.35)"><g transform="" style="fill: rgb(0, 0, 0);">
<rect width="100" height="100"/>
</g></g><g transform="translate(0,455) scale(0.35,0.35)"><g transform="" style="fill: rgb(0, 0, 0);">
<rect width="100" height="100"/>
</g></g><g transform="translate(35,455) scale(0.35,0.35)"><g transform="" style="fill: rgb(0, 0, 0);">
<rect width="100" height="100"/>
</g></g><g transform="translate(175,455) scale(0.35,0.35)"><g transform="" style="fill: rgb(0, 0, 0);">
<rect width="100" height="100"/>
</g></g><g transform="translate(280,455) scale(0.35,0.35)"><g transform="" style="fill: rgb(0, 0, 0);">
<rect width="100" height="100"/>
</g></g><g transform="translate(315,455) scale(0.35,0.35)"><g transform="" style="fill: rgb(0, 0, 0);">
<rect width="100" height="100"/>
</g></g><g transform="translate(350,455) scale(0.35,0.35)"><g transform="" style="fill: rgb(0, 0, 0);">
<rect width="100" height="100"/>
</g></g><g transform="translate(420,455) scale(0.35,0.35)"><g transform="" style="fill: rgb(0, 0, 0);">
<rect width="100" height="100"/>
</g></g><g transform="translate(455,455) scale(0.35,0.35)"><g transform="" style="fill: rgb(0, 0, 0);">
<rect width="100" height="100"/>
</g></g><g transform="translate(490,455) scale(0.35,0.35)"><g transform="" style="fill: rgb(0, 0, 0);">
<rect width="100" height="100"/>
</g></g><g transform="translate(525,455) scale(0.35,0.35)"><g transform="" style="fill: rgb(0, 0, 0);">
<rect width="100" height="100"/>
</g></g><g transform="translate(560,455) scale(0.35,0.35)"><g transform="" style="fill: rgb(0, 0, 0);">
<rect width="100" height="100"/>
</g></g><g transform="translate(595,455) scale(0.35,0.35)"><g transform="" style="fill: rgb(0, 0, 0);">
<rect width="100" height="100"/>
</g></g><g transform="translate(665,455) scale(0.35,0.35)"><g transform="" style="fill: rgb(0, 0, 0);">
<rect width="100" height="100"/>
</g></g><g transform="translate(700,455) scale(0.35,0.35)"><g transform="" style="fill: rgb(0, 0, 0);">
<rect width="100" height="100"/>
</g></g><g transform="translate(735,455) scale(0.35,0.35)"><g transform="" style="fill: rgb(0, 0, 0);">
<rect width="100" height="100"/>
</g></g><g transform="translate(770,455) scale(0.35,0.35)"><g transform="" style="fill: rgb(0, 0, 0);">
<rect width="100" height="100"/>
</g></g><g transform="translate(805,455) scale(0.35,0.35)"><g transform="" style="fill: rgb(0, 0, 0);">
<rect width="100" height="100"/>
</g></g><g transform="translate(0,490) scale(0.35,0.35)"><g transform="" style="fill: rgb(0, 0, 0);">
<rect width="100" height="100"/>
</g></g><g transform="translate(35,490) scale(0.35,0.35)"><g transform="" style="fill: rgb(0, 0, 0);">
<rect width="100" height="100"/>
</g></g><g transform="translate(70,490) scale(0.35,0.35)"><g transform="" style="fill: rgb(0, 0, 0);">
<rect width="100" height="100"/>
</g></g><g transform="translate(140,490) scale(0.35,0.35)"><g transform="" style="fill: rgb(0, 0, 0);">
<rect width="100" height="100"/>
</g></g><g transform="translate(210,490) scale(0.35,0.35)"><g transform="" style="fill: rgb(0, 0, 0);">
<rect width="100" height="100"/>
</g></g><g transform="translate(245,490) scale(0.35,0.35)"><g transform="" style="fill: rgb(0, 0, 0);">
<rect width="100" height="100"/>
</g></g><g transform="translate(315,490) scale(0.35,0.35)"><g transform="" style="fill: rgb(0, 0, 0);">
<rect width="100" height="100"/>
</g></g><g transform="translate(420,490) scale(0.35,0.35)"><g transform="" style="fill: rgb(0, 0, 0);">
<rect width="100" height="100"/>
</g></g><g transform="translate(595,490) scale(0.35,0.35)"><g transform="" style="fill: rgb(0, 0, 0);">
<rect width="100" height="100"/>
</g></g><g transform="translate(630,490) scale(0.35,0.35)"><g transform="" style="fill: rgb(0, 0, 0);">
<rect width="100" height="100"/>
</g></g><g transform="translate(665,490) scale(0.35,0.35)"><g transform="" style="fill: rgb(0, 0, 0);">
<rect width="100" height="100"/>
</g></g><g transform="translate(805,490) scale(0.35,0.35)"><g transform="" style="fill: rgb(0, 0, 0);">
<rect width="100" height="100"/>
</g></g><g transform="translate(840,490) scale(0.35,0.35)"><g transform="" style="fill: rgb(0, 0, 0);">
<rect width="100" height="100"/>
</g></g><g transform="translate(910,490) scale(0.35,0.35)"><g transform="" style="fill: rgb(0, 0, 0);">
<rect width="100" height="100"/>
</g></g><g transform="translate(980,490) scale(0.35,0.35)"><g transform="" style="fill: rgb(0, 0, 0);">
<rect width="100" height="100"/>
</g></g><g transform="translate(35,525) scale(0.35,0.35)"><g transform="" style="fill: rgb(0, 0, 0);">
<rect width="100" height="100"/>
</g></g><g transform="translate(140,525) scale(0.35,0.35)"><g transform="" style="fill: rgb(0, 0, 0);">
<rect width="100" height="100"/>
</g></g><g transform="translate(175,525) scale(0.35,0.35)"><g transform="" style="fill: rgb(0, 0, 0);">
<rect width="100" height="100"/>
</g></g><g transform="translate(280,525) scale(0.35,0.35)"><g transform="" style="fill: rgb(0, 0, 0);">
<rect width="100" height="100"/>
</g></g><g transform="translate(315,525) scale(0.35,0.35)"><g transform="" style="fill: rgb(0, 0, 0);">
<rect width="100" height="100"/>
</g></g><g transform="translate(350,525) scale(0.35,0.35)"><g transform="" style="fill: rgb(0, 0, 0);">
<rect width="100" height="100"/>
</g></g><g transform="translate(420,525) scale(0.35,0.35)"><g transform="" style="fill: rgb(0, 0, 0);">
<rect width="100" height="100"/>
</g></g><g transform="translate(455,525) scale(0.35,0.35)"><g transform="" style="fill: rgb(0, 0, 0);">
<rect width="100" height="100"/>
</g></g><g transform="translate(525,525) scale(0.35,0.35)"><g transform="" style="fill: rgb(0, 0, 0);">
<rect width="100" height="100"/>
</g></g><g transform="translate(560,525) scale(0.35,0.35)"><g transform="" style="fill: rgb(0, 0, 0);">
<rect width="100" height="100"/>
</g></g><g transform="translate(665,525) scale(0.35,0.35)"><g transform="" style="fill: rgb(0, 0, 0);">
<rect width="100" height="100"/>
</g></g><g transform="translate(805,525) scale(0.35,0.35)"><g transform="" style="fill: rgb(0, 0, 0);">
<rect width="100" height="100"/>
</g></g><g transform="translate(875,525) scale(0.35,0.35)"><g transform="" style="fill: rgb(0, 0, 0);">
<rect width="100" height="100"/>
</g></g><g transform="translate(980,525) scale(0.35,0.35)"><g transform="" style="fill: rgb(0, 0, 0);">
<rect width="100" height="100"/>
</g></g><g transform="translate(0,560) scale(0.35,0.35)"><g transform="" style="fill: rgb(0, 0, 0);">
<rect width="100" height="100"/>
</g></g><g transform="translate(70,560) scale(0.35,0.35)"><g transform="" style="fill: rgb(0, 0, 0);">
<rect width="100" height="100"/>
</g></g><g transform="translate(105,560) scale(0.35,0.35)"><g transform="" style="fill: rgb(0, 0, 0);">
<rect width="100" height="100"/>
</g></g><g transform="translate(140,560) scale(0.35,0.35)"><g transform="" style="fill: rgb(0, 0, 0);">
<rect width="100" height="100"/>
</g></g><g transform="translate(175,560) scale(0.35,0.35)"><g transform="" style="fill: rgb(0, 0, 0);">
<rect width="100" height="100"/>
</g></g><g transform="translate(210,560) scale(0.35,0.35)"><g transform="" style="fill: rgb(0, 0, 0);">
<rect width="100" height="100"/>
</g></g><g transform="translate(280,560) scale(0.35,0.35)"><g transform="" style="fill: rgb(0, 0, 0);">
<rect width="100" height="100"/>
</g></g><g transform="translate(315,560) scale(0.35,0.35)"><g transform="" style="fill: rgb(0, 0, 0);">
<rect width="100" height="100"/>
</g></g><g transform="translate(385,560) scale(0.35,0.35)"><g transform="" style="fill: rgb(0, 0, 0);">
<rect width="100" height="100"/>
</g></g><g transform="translate(455,560) scale(0.35,0.35)"><g transform="" style="fill: rgb(0, 0, 0);">
<rect width="100" height="100"/>
</g></g><g transform="translate(560,560) scale(0.35,0.35)"><g transform="" style="fill: rgb(0, 0, 0);">
<rect width="100" height="100"/>
</g></g><g transform="translate(595,560) scale(0.35,0.35)"><g transform="" style="fill: rgb(0, 0, 0);">
<rect width="100" height="100"/>
</g></g><g transform="translate(630,560) scale(0.35,0.35)"><g transform="" style="fill: rgb(0, 0, 0);">
<rect width="100" height="100"/>
</g></g><g transform="translate(665,560) scale(0.35,0.35)"><g transform="" style="fill: rgb(0, 0, 0);">
<rect width="100" height="100"/>
</g></g><g transform="translate(700,560) scale(0.35,0.35)"><g transform="" style="fill: rgb(0, 0, 0);">
<rect width="100" height="100"/>
</g></g><g transform="translate(735,560) scale(0.35,0.35)"><g transform="" style="fill: rgb(0, 0, 0);">
<rect width="100" height="100"/>
</g></g><g transform="translate(770,560) scale(0.35,0.35)"><g transform="" style="fill: rgb(0, 0, 0);">
<rect width="100" height="100"/>
</g></g><g transform="translate(805,560) scale(0.35,0.35)"><g transform="" style="fill: rgb(0, 0, 0);">
<rect width="100" height="100"/>
</g></g><g transform="translate(875,560) scale(0.35,0.35)"><g transform="" style="fill: rgb(0, 0, 0);">
<rect width="100" height="100"/>
</g></g><g transform="translate(980,560) scale(0.35,0.35)"><g transform="" style="fill: rgb(0, 0, 0);">
<rect width="100" height="100"/>
</g></g><g transform="translate(70,595) scale(0.35,0.35)"><g transform="" style="fill: rgb(0, 0, 0);">
<rect width="100" height="100"/>
</g></g><g transform="translate(105,595) scale(0.35,0.35)"><g transform="" style="fill: rgb(0, 0, 0);">
<rect width="100" height="100"/>
</g></g><g transform="translate(245,595) scale(0.35,0.35)"><g transform="" style="fill: rgb(0, 0, 0);">
<rect width="100" height="100"/>
</g></g><g transform="translate(280,595) scale(0.35,0.35)"><g transform="" style="fill: rgb(0, 0, 0);">
<rect width="100" height="100"/>
</g></g><g transform="translate(315,595) scale(0.35,0.35)"><g transform="" style="fill: rgb(0, 0, 0);">
<rect width="100" height="100"/>
</g></g><g transform="translate(420,595) scale(0.35,0.35)"><g transform="" style="fill: rgb(0, 0, 0);">
<rect width="100" height="100"/>
</g></g><g transform="translate(560,595) scale(0.35,0.35)"><g transform="" style="fill: rgb(0, 0, 0);">
<rect width="100" height="100"/>
</g></g><g transform="translate(595,595) scale(0.35,0.35)"><g transform="" style="fill: rgb(0, 0, 0);">
<rect width="100" height="100"/>
</g></g><g transform="translate(665,595) scale(0.35,0.35)"><g transform="" style="fill: rgb(0, 0, 0);">
<rect width="100" height="100"/>
</g></g><g transform="translate(700,595) scale(0.35,0.35)"><g transform="" style="fill: rgb(0, 0, 0);">
<rect width="100" height="100"/>
</g></g><g transform="translate(770,595) scale(0.35,0.35)"><g transform="" style="fill: rgb(0, 0, 0);">
<rect width="100" height="100"/>
</g></g><g transform="translate(805,595) scale(0.35,0.35)"><g transform="" style="fill: rgb(0, 0, 0);">
<rect width="100" height="100"/>
</g></g><g transform="translate(875,595) scale(0.35,0.35)"><g transform="" style="fill: rgb(0, 0, 0);">
<rect width="100" height="100"/>
</g></g><g transform="translate(980,595) scale(0.35,0.35)"><g transform="" style="fill: rgb(0, 0, 0);">
<rect width="100" height="100"/>
</g></g><g transform="translate(0,630) scale(0.35,0.35)"><g transform="" style="fill: rgb(0, 0, 0);">
<rect width="100" height="100"/>
</g></g><g transform="translate(35,630) scale(0.35,0.35)"><g transform="" style="fill: rgb(0, 0, 0);">
<rect width="100" height="100"/>
</g></g><g transform="translate(70,630) scale(0.35,0.35)"><g transform="" style="fill: rgb(0, 0, 0);">
<rect width="100" height="100"/>
</g></g><g transform="translate(140,630) scale(0.35,0.35)"><g transform="" style="fill: rgb(0, 0, 0);">
<rect width="100" height="100"/>
</g></g><g transform="translate(210,630) scale(0.35,0.35)"><g transform="" style="fill: rgb(0, 0, 0);">
<rect width="100" height="100"/>
</g></g><g transform="translate(315,630) scale(0.35,0.35)"><g transform="" style="fill: rgb(0, 0, 0);">
<rect width="100" height="100"/>
</g></g><g transform="translate(350,630) scale(0.35,0.35)"><g transform="" style="fill: rgb(0, 0, 0);">
<rect width="100" height="100"/>
</g></g><g transform="translate(420,630) scale(0.35,0.35)"><g transform="" style="fill: rgb(0, 0, 0);">
<rect width="100" height="100"/>
</g></g><g transform="translate(490,630) scale(0.35,0.35)"><g transform="" style="fill: rgb(0, 0, 0);">
<rect width="100" height="100"/>
</g></g><g transform="translate(560,630) scale(0.35,0.35)"><g transform="" style="fill: rgb(0, 0, 0);">
<rect width="100" height="100"/>
</g></g><g transform="translate(630,630) scale(0.35,0.35)"><g transform="" style="fill: rgb(0, 0, 0);">
<rect width="100" height="100"/>
</g></g><g transform="translate(665,630) scale(0.35,0.35)"><g transform="" style="fill: rgb(0, 0, 0);">
<rect width="100" height="100"/>
</g></g><g transform="translate(735,630) scale(0.35,0.35)"><g transform="" style="fill: rgb(0, 0, 0);">
<rect width="100" height="100"/>
</g></g><g transform="translate(840,630) scale(0.35,0.35)"><g transform="" style="fill: rgb(0, 0, 0);">
<rect width="100" height="100"/>
</g></g><g transform="translate(980,630) scale(0.35,0.35)"><g transform="" style="fill: rgb(0, 0, 0);">
<rect width="100" height="100"/>
</g></g><g transform="translate(105,665) scale(0.35,0.35)"><g transform="" style="fill: rgb(0, 0, 0);">
<rect width="100" height="100"/>
</g></g><g transform="translate(140,665) scale(0.35,0.35)"><g transform="" style="fill: rgb(0, 0, 0);">
<rect width="100" height="100"/>
</g></g><g transform="translate(280,665) scale(0.35,0.35)"><g transform="" style="fill: rgb(0, 0, 0);">
<rect width="100" height="100"/>
</g></g><g transform="translate(315,665) scale(0.35,0.35)"><g transform="" style="fill: rgb(0, 0, 0);">
<rect width="100" height="100"/>
</g></g><g transform="translate(385,665) scale(0.35,0.35)"><g transform="" style="fill: rgb(0, 0, 0);">
<rect width="100" height="100"/>
</g></g><g transform="translate(420,665) scale(0.35,0.35)"><g transform="" style="fill: rgb(0, 0, 0);">
<rect width="100" height="100"/>
</g></g><g transform="translate(525,665) scale(0.35,0.35)"><g transform="" style="fill: rgb(0, 0, 0);">
<rect width="100" height="100"/>
</g></g><g transform="translate(595,665) scale(0.35,0.35)"><g transform="" style="fill: rgb(0, 0, 0);">
<rect width="100" height="100"/>
</g></g><g transform="translate(665,665) scale(0.35,0.35)"><g transform="" style="fill: rgb(0, 0, 0);">
<rect width="100" height="100"/>
</g></g><g transform="translate(770,665) scale(0.35,0.35)"><g transform="" style="fill: rgb(0, 0, 0);">
<rect width="100" height="100"/>
</g></g><g transform="translate(875,665) scale(0.35,0.35)"><g transform="" style="fill: rgb(0, 0, 0);">
<rect width="100" height="100"/>
</g></g><g transform="translate(945,665) scale(0.35,0.35)"><g transform="" style="fill: rgb(0, 0, 0);">
<rect width="100" height="100"/>
</g></g><g transform="translate(980,665) scale(0.35,0.35)"><g transform="" style="fill: rgb(0, 0, 0);">
<rect width="100" height="100"/>
</g></g><g transform="translate(0,700) scale(0.35,0.35)"><g transform="" style="fill: rgb(0, 0, 0);">
<rect width="100" height="100"/>
</g></g><g transform="translate(35,700) scale(0.35,0.35)"><g transform="" style="fill: rgb(0, 0, 0);">
<rect width="100" height="100"/>
</g></g><g transform="translate(140,700) scale(0.35,0.35)"><g transform="" style="fill: rgb(0, 0, 0);">
<rect width="100" height="100"/>
</g></g><g transform="translate(175,700) scale(0.35,0.35)"><g transform="" style="fill: rgb(0, 0, 0);">
<rect width="100" height="100"/>
</g></g><g transform="translate(210,700) scale(0.35,0.35)"><g transform="" style="fill: rgb(0, 0, 0);">
<rect width="100" height="100"/>
</g></g><g transform="translate(350,700) scale(0.35,0.35)"><g transform="" style="fill: rgb(0, 0, 0);">
<rect width="100" height="100"/>
</g></g><g transform="translate(385,700) scale(0.35,0.35)"><g transform="" style="fill: rgb(0, 0, 0);">
<rect width="100" height="100"/>
</g></g><g transform="translate(455,700) scale(0.35,0.35)"><g transform="" style="fill: rgb(0, 0, 0);">
<rect width="100" height="100"/>
</g></g><g transform="translate(525,700) scale(0.35,0.35)"><g transform="" style="fill: rgb(0, 0, 0);">
<rect width="100" height="100"/>
</g></g><g transform="translate(560,700) scale(0.35,0.35)"><g transform="" style="fill: rgb(0, 0, 0);">
<rect width="100" height="100"/>
</g></g><g transform="translate(595,700) scale(0.35,0.35)"><g transform="" style="fill: rgb(0, 0, 0);">
<rect width="100" height="100"/>
</g></g><g transform="translate(665,700) scale(0.35,0.35)"><g transform="" style="fill: rgb(0, 0, 0);">
<rect width="100" height="100"/>
</g></g><g transform="translate(700,700) scale(0.35,0.35)"><g transform="" style="fill: rgb(0, 0, 0);">
<rect width="100" height="100"/>
</g></g><g transform="translate(735,700) scale(0.35,0.35)"><g transform="" style="fill: rgb(0, 0, 0);">
<rect width="100" height="100"/>
</g></g><g transform="translate(770,700) scale(0.35,0.35)"><g transform="" style="fill: rgb(0, 0, 0);">
<rect width="100" height="100"/>
</g></g><g transform="translate(805,700) scale(0.35,0.35)"><g transform="" style="fill: rgb(0, 0, 0);">
<rect width="100" height="100"/>
</g></g><g transform="translate(840,700) scale(0.35,0.35)"><g transform="" style="fill: rgb(0, 0, 0);">
<rect width="100" height="100"/>
</g></g><g transform="translate(875,700) scale(0.35,0.35)"><g transform="" style="fill: rgb(0, 0, 0);">
<rect width="100" height="100"/>
</g></g><g transform="translate(980,700) scale(0.35,0.35)"><g transform="" style="fill: rgb(0, 0, 0);">
<rect width="100" height="100"/>
</g></g><g transform="translate(280,735) scale(0.35,0.35)"><g transform="" style="fill: rgb(0, 0, 0);">
<rect width="100" height="100"/>
</g></g><g transform="translate(350,735) scale(0.35,0.35)"><g transform="" style="fill: rgb(0, 0, 0);">
<rect width="100" height="100"/>
</g></g><g transform="translate(385,735) scale(0.35,0.35)"><g transform="" style="fill: rgb(0, 0, 0);">
<rect width="100" height="100"/>
</g></g><g transform="translate(490,735) scale(0.35,0.35)"><g transform="" style="fill: rgb(0, 0, 0);">
<rect width="100" height="100"/>
</g></g><g transform="translate(525,735) scale(0.35,0.35)"><g transform="" style="fill: rgb(0, 0, 0);">
<rect width="100" height="100"/>
</g></g><g transform="translate(560,735) scale(0.35,0.35)"><g transform="" style="fill: rgb(0, 0, 0);">
<rect width="100" height="100"/>
</g></g><g transform="translate(665,735) scale(0.35,0.35)"><g transform="" style="fill: rgb(0, 0, 0);">
<rect width="100" height="100"/>
</g></g><g transform="translate(700,735) scale(0.35,0.35)"><g transform="" style="fill: rgb(0, 0, 0);">
<rect width="100" height="100"/>
</g></g><g transform="translate(840,735) scale(0.35,0.35)"><g transform="" style="fill: rgb(0, 0, 0);">
<rect width="100" height="100"/>
</g></g><g transform="translate(910,735) scale(0.35,0.35)"><g transform="" style="fill: rgb(0, 0, 0);">
<rect width="100" height="100"/>
</g></g><g transform="translate(945,735) scale(0.35,0.35)"><g transform="" style="fill: rgb(0, 0, 0);">
<rect width="100" height="100"/>
</g></g><g transform="translate(980,735) scale(0.35,0.35)"><g transform="" style="fill: rgb(0, 0, 0);">
<rect width="100" height="100"/>
</g></g><g transform="translate(280,770) scale(0.35,0.35)"><g transform="" style="fill: rgb(0, 0, 0);">
<rect width="100" height="100"/>
</g></g><g transform="translate(350,770) scale(0.35,0.35)"><g transform="" style="fill: rgb(0, 0, 0);">
<rect width="100" height="100"/>
</g></g><g transform="translate(455,770) scale(0.35,0.35)"><g transform="" style="fill: rgb(0, 0, 0);">
<rect width="100" height="100"/>
</g></g><g transform="translate(490,770) scale(0.35,0.35)"><g transform="" style="fill: rgb(0, 0, 0);">
<rect width="100" height="100"/>
</g></g><g transform="translate(560,770) scale(0.35,0.35)"><g transform="" style="fill: rgb(0, 0, 0);">
<rect width="100" height="100"/>
</g></g><g transform="translate(700,770) scale(0.35,0.35)"><g transform="" style="fill: rgb(0, 0, 0);">
<rect width="100" height="100"/>
</g></g><g transform="translate(770,770) scale(0.35,0.35)"><g transform="" style="fill: rgb(0, 0, 0);">
<rect width="100" height="100"/>
</g></g><g transform="translate(840,770) scale(0.35,0.35)"><g transform="" style="fill: rgb(0, 0, 0);">
<rect width="100" height="100"/>
</g></g><g transform="translate(910,770) scale(0.35,0.35)"><g transform="" style="fill: rgb(0, 0, 0);">
<rect width="100" height="100"/>
</g></g><g transform="translate(945,770) scale(0.35,0.35)"><g transform="" style="fill: rgb(0, 0, 0);">
<rect width="100" height="100"/>
</g></g><g transform="translate(980,770) scale(0.35,0.35)"><g transform="" style="fill: rgb(0, 0, 0);">
<rect width="100" height="100"/>
</g></g><g transform="translate(280,805) scale(0.35,0.35)"><g transform="" style="fill: rgb(0, 0, 0);">
<rect width="100" height="100"/>
</g></g><g transform="translate(350,805) scale(0.35,0.35)"><g transform="" style="fill: rgb(0, 0, 0);">
<rect width="100" height="100"/>
</g></g><g transform="translate(385,805) scale(0.35,0.35)"><g transform="" style="fill: rgb(0, 0, 0);">
<rect width="100" height="100"/>
</g></g><g transform="translate(455,805) scale(0.35,0.35)"><g transform="" style="fill: rgb(0, 0, 0);">
<rect width="100" height="100"/>
</g></g><g transform="translate(490,805) scale(0.35,0.35)"><g transform="" style="fill: rgb(0, 0, 0);">
<rect width="100" height="100"/>
</g></g><g transform="translate(525,805) scale(0.35,0.35)"><g transform="" style="fill: rgb(0, 0, 0);">
<rect width="100" height="100"/>
</g></g><g transform="translate(560,805) scale(0.35,0.35)"><g transform="" style="fill: rgb(0, 0, 0);">
<rect width="100" height="100"/>
</g></g><g transform="translate(595,805) scale(0.35,0.35)"><g transform="" style="fill: rgb(0, 0, 0);">
<rect width="100" height="100"/>
</g></g><g transform="translate(630,805) scale(0.35,0.35)"><g transform="" style="fill: rgb(0, 0, 0);">
<rect width="100" height="100"/>
</g></g><g transform="translate(700,805) scale(0.35,0.35)"><g transform="" style="fill: rgb(0, 0, 0);">
<rect width="100" height="100"/>
</g></g><g transform="translate(840,805) scale(0.35,0.35)"><g transform="" style="fill: rgb(0, 0, 0);">
<rect width="100" height="100"/>
</g></g><g transform="translate(875,805) scale(0.35,0.35)"><g transform="" style="fill: rgb(0, 0, 0);">
<rect width="100" height="100"/>
</g></g><g transform="translate(385,840) scale(0.35,0.35)"><g transform="" style="fill: rgb(0, 0, 0);">
<rect width="100" height="100"/>
</g></g><g transform="translate(525,840) scale(0.35,0.35)"><g transform="" style="fill: rgb(0, 0, 0);">
<rect width="100" height="100"/>
</g></g><g transform="translate(560,840) scale(0.35,0.35)"><g transform="" style="fill: rgb(0, 0, 0);">
<rect width="100" height="100"/>
</g></g><g transform="translate(595,840) scale(0.35,0.35)"><g transform="" style="fill: rgb(0, 0, 0);">
<rect width="100" height="100"/>
</g></g><g transform="translate(630,840) scale(0.35,0.35)"><g transform="" style="fill: rgb(0, 0, 0);">
<rect width="100" height="100"/>
</g></g><g transform="translate(665,840) scale(0.35,0.35)"><g transform="" style="fill: rgb(0, 0, 0);">
<rect width="100" height="100"/>
</g></g><g transform="translate(700,840) scale(0.35,0.35)"><g transform="" style="fill: rgb(0, 0, 0);">
<rect width="100" height="100"/>
</g></g><g transform="translate(735,840) scale(0.35,0.35)"><g transform="" style="fill: rgb(0, 0, 0);">
<rect width="100" height="100"/>
</g></g><g transform="translate(770,840) scale(0.35,0.35)"><g transform="" style="fill: rgb(0, 0, 0);">
<rect width="100" height="100"/>
</g></g><g transform="translate(805,840) scale(0.35,0.35)"><g transform="" style="fill: rgb(0, 0, 0);">
<rect width="100" height="100"/>
</g></g><g transform="translate(840,840) scale(0.35,0.35)"><g transform="" style="fill: rgb(0, 0, 0);">
<rect width="100" height="100"/>
</g></g><g transform="translate(875,840) scale(0.35,0.35)"><g transform="" style="fill: rgb(0, 0, 0);">
<rect width="100" height="100"/>
</g></g><g transform="translate(980,840) scale(0.35,0.35)"><g transform="" style="fill: rgb(0, 0, 0);">
<rect width="100" height="100"/>
</g></g><g transform="translate(315,875) scale(0.35,0.35)"><g transform="" style="fill: rgb(0, 0, 0);">
<rect width="100" height="100"/>
</g></g><g transform="translate(385,875) scale(0.35,0.35)"><g transform="" style="fill: rgb(0, 0, 0);">
<rect width="100" height="100"/>
</g></g><g transform="translate(455,875) scale(0.35,0.35)"><g transform="" style="fill: rgb(0, 0, 0);">
<rect width="100" height="100"/>
</g></g><g transform="translate(490,875) scale(0.35,0.35)"><g transform="" style="fill: rgb(0, 0, 0);">
<rect width="100" height="100"/>
</g></g><g transform="translate(525,875) scale(0.35,0.35)"><g transform="" style="fill: rgb(0, 0, 0);">
<rect width="100" height="100"/>
</g></g><g transform="translate(665,875) scale(0.35,0.35)"><g transform="" style="fill: rgb(0, 0, 0);">
<rect width="100" height="100"/>
</g></g><g transform="translate(735,875) scale(0.35,0.35)"><g transform="" style="fill: rgb(0, 0, 0);">
<rect width="100" height="100"/>
</g></g><g transform="translate(805,875) scale(0.35,0.35)"><g transform="" style="fill: rgb(0, 0, 0);">
<rect width="100" height="100"/>
</g></g><g transform="translate(840,875) scale(0.35,0.35)"><g transform="" style="fill: rgb(0, 0, 0);">
<rect width="100" height="100"/>
</g></g><g transform="translate(875,875) scale(0.35,0.35)"><g transform="" style="fill: rgb(0, 0, 0);">
<rect width="100" height="100"/>
</g></g><g transform="translate(910,875) scale(0.35,0.35)"><g transform="" style="fill: rgb(0, 0, 0);">
<rect width="100" height="100"/>
</g></g><g transform="translate(945,875) scale(0.35,0.35)"><g transform="" style="fill: rgb(0, 0, 0);">
<rect width="100" height="100"/>
</g></g><g transform="translate(280,910) scale(0.35,0.35)"><g transform="" style="fill: rgb(0, 0, 0);">
<rect width="100" height="100"/>
</g></g><g transform="translate(315,910) scale(0.35,0.35)"><g transform="" style="fill: rgb(0, 0, 0);">
<rect width="100" height="100"/>
</g></g><g transform="translate(350,910) scale(0.35,0.35)"><g transform="" style="fill: rgb(0, 0, 0);">
<rect width="100" height="100"/>
</g></g><g transform="translate(385,910) scale(0.35,0.35)"><g transform="" style="fill: rgb(0, 0, 0);">
<rect width="100" height="100"/>
</g></g><g transform="translate(420,910) scale(0.35,0.35)"><g transform="" style="fill: rgb(0, 0, 0);">
<rect width="100" height="100"/>
</g></g><g transform="translate(525,910) scale(0.35,0.35)"><g transform="" style="fill: rgb(0, 0, 0);">
<rect width="100" height="100"/>
</g></g><g transform="translate(560,910) scale(0.35,0.35)"><g transform="" style="fill: rgb(0, 0, 0);">
<rect width="100" height="100"/>
</g></g><g transform="translate(665,910) scale(0.35,0.35)"><g transform="" style="fill: rgb(0, 0, 0);">
<rect width="100" height="100"/>
</g></g><g transform="translate(700,910) scale(0.35,0.35)"><g transform="" style="fill: rgb(0, 0, 0);">
<rect width="100" height="100"/>
</g></g><g transform="translate(735,910) scale(0.35,0.35)"><g transform="" style="fill: rgb(0, 0, 0);">
<rect width="100" height="100"/>
</g></g><g transform="translate(840,910) scale(0.35,0.35)"><g transform="" style="fill: rgb(0, 0, 0);">
<rect width="100" height="100"/>
</g></g><g transform="translate(910,910) scale(0.35,0.35)"><g transform="" style="fill: rgb(0, 0, 0);">
<rect width="100" height="100"/>
</g></g><g transform="translate(945,910) scale(0.35,0.35)"><g transform="" style="fill: rgb(0, 0, 0);">
<rect width="100" height="100"/>
</g></g><g transform="translate(980,910) scale(0.35,0.35)"><g transform="" style="fill: rgb(0, 0, 0);">
<rect width="100" height="100"/>
</g></g><g transform="translate(315,945) scale(0.35,0.35)"><g transform="" style="fill: rgb(0, 0, 0);">
<rect width="100" height="100"/>
</g></g><g transform="translate(420,945) scale(0.35,0.35)"><g transform="" style="fill: rgb(0, 0, 0);">
<rect width="100" height="100"/>
</g></g><g transform="translate(455,945) scale(0.35,0.35)"><g transform="" style="fill: rgb(0, 0, 0);">
<rect width="100" height="100"/>
</g></g><g transform="translate(560,945) scale(0.35,0.35)"><g transform="" style="fill: rgb(0, 0, 0);">
<rect width="100" height="100"/>
</g></g><g transform="translate(595,945) scale(0.35,0.35)"><g transform="" style="fill: rgb(0, 0, 0);">
<rect width="100" height="100"/>
</g></g><g transform="translate(630,945) scale(0.35,0.35)"><g transform="" style="fill: rgb(0, 0, 0);">
<rect width="100" height="100"/>
</g></g><g transform="translate(700,945) scale(0.35,0.35)"><g transform="" style="fill: rgb(0, 0, 0);">
<rect width="100" height="100"/>
</g></g><g transform="translate(735,945) scale(0.35,0.35)"><g transform="" style="fill: rgb(0, 0, 0);">
<rect width="100" height="100"/>
</g></g><g transform="translate(770,945) scale(0.35,0.35)"><g transform="" style="fill: rgb(0, 0, 0);">
<rect width="100" height="100"/>
</g></g><g transform="translate(875,945) scale(0.35,0.35)"><g transform="" style="fill: rgb(0, 0, 0);">
<rect width="100" height="100"/>
</g></g><g transform="translate(350,980) scale(0.35,0.35)"><g transform="" style="fill: rgb(0, 0, 0);">
<rect width="100" height="100"/>
</g></g><g transform="translate(385,980) scale(0.35,0.35)"><g transform="" style="fill: rgb(0, 0, 0);">
<rect width="100" height="100"/>
</g></g><g transform="translate(420,980) scale(0.35,0.35)"><g transform="" style="fill: rgb(0, 0, 0);">
<rect width="100" height="100"/>
</g></g><g transform="translate(525,980) scale(0.35,0.35)"><g transform="" style="fill: rgb(0, 0, 0);">
<rect width="100" height="100"/>
</g></g><g transform="translate(560,980) scale(0.35,0.35)"><g transform="" style="fill: rgb(0, 0, 0);">
<rect width="100" height="100"/>
</g></g><g transform="translate(700,980) scale(0.35,0.35)"><g transform="" style="fill: rgb(0, 0, 0);">
<rect width="100" height="100"/>
</g></g><g transform="translate(735,980) scale(0.35,0.35)"><g transform="" style="fill: rgb(0, 0, 0);">
<rect width="100" height="100"/>
</g></g><g transform="translate(875,980) scale(0.35,0.35)"><g transform="" style="fill: rgb(0, 0, 0);">
<rect width="100" height="100"/>
</g></g><g transform="translate(980,980) scale(0.35,0.35)"><g transform="" style="fill: rgb(0, 0, 0);">
<rect width="100" height="100"/>
</g></g><g transform="translate(0,0) scale(2.45, 2.45)"><g transform="" style="fill: rgb(0, 0, 0);">
<g>
	<rect x="15" y="15" style="fill:none;" width="70" height="70"/>
	<path d="M85,0H15H0v15v70v15h15h70h15V85V15V0H85z M85,85H15V15h70V85z"/>
</g>
</g></g><g transform="translate(770,0) scale(2.45, 2.45)"><g transform="" style="fill: rgb(0, 0, 0);">
<g>
	<rect x="15" y="15" style="fill:none;" width="70" height="70"/>
	<path d="M85,0H15H0v15v70v15h15h70h15V85V15V0H85z M85,85H15V15h70V85z"/>
</g>
</g></g><g transform="translate(0,770) scale(2.45, 2.45)"><g transform="" style="fill: rgb(0, 0, 0);">
<g>
	<rect x="15" y="15" style="fill:none;" width="70" height="70"/>
	<path d="M85,0H15H0v15v70v15h15h70h15V85V15V0H85z M85,85H15V15h70V85z"/>
</g>
</g></g><g transform="translate(70,70) scale(1.05, 1.05)"><g transform="" style="fill: rgb(0, 95, 153);">
<polygon points="51.156,100 0,49.844 0,0 49.844,0 100,51.156 100,100 "/>
</g></g><g transform="translate(840,70) scale(1.05, 1.05)"><g transform=" translate(100, 0) scale(-1,1) " style="fill: rgb(0, 95, 153);">
<polygon points="51.156,100 0,49.844 0,0 49.844,0 100,51.156 100,100 "/>
</g></g><g transform="translate(70,840) scale(1.05, 1.05)"><g transform=" translate(0,100) scale(1,-1) " style="fill: rgb(0, 95, 153);">
<polygon points="51.156,100 0,49.844 0,0 49.844,0 100,51.156 100,100 "/>
</g></g><g transform="translate(350,350) scale(0.315,0.315)" width="315" height="315"><svg
   xmlns:dc="http://purl.org/dc/elements/1.1/"
   xmlns:cc="http://creativecommons.org/ns#"
   xmlns:rdf="http://www.w3.org/1999/02/22-rdf-syntax-ns#"
   xmlns:svg="http://www.w3.org/2000/svg"
   xmlns="http://www.w3.org/2000/svg"
   version="1.1"
   width="1000"
   height="1000"
   viewBox="0 0 1000 1000"
   id="Layer_1"
   xml:space="preserve"><metadata
     id="metadata91"><rdf:RDF><cc:Work
         rdf:about=""><dc:format>image/svg+xml</dc:format><dc:type
           rdf:resource="http://purl.org/dc/dcmitype/StillImage" /><dc:title></dc:title></cc:Work></rdf:RDF></metadata><defs
     id="defs89" /><g
     transform="matrix(2.0233699,0,0,2.0233699,-19.585452,-1.3925981)"
     id="g3"><path
       d="m 461.1,70.3 c 4.5,-2.7 9.1,-1.2 13.5,0 17.1,4.7 29.2,20.4 29.5,38.3 0.1,4.5 -0.1,9 -0.1,13.4 -1.3,0 -2.1,0.8 -3.1,1.5 -12.6,9 -25.4,18 -37.9,27.1 -5.1,3.7 -10.7,6.6 -15,11.3 -1.8,0 -3.1,1.2 -4.4,2.1 -41.6,28.7 -83.2,57.3 -124.7,86 -20.6,14.2 -41.2,28.6 -61.8,42.9 -0.6,0 -1.2,0 -1.7,0 -0.9,-0.7 -1.7,-1.6 -2.6,-2.2 C 202.1,255.4 151.4,220.1 100.7,184.8 90.3,177.6 79.9,170.3 69.5,163.1 c -1.2,-0.8 -2.3,-2.5 -3.8,-1.6 -1.4,0.8 -0.5,2.7 -0.7,4.2 -0.1,0.5 0,1 0,1.5 0,83.5 0,167 0,250.5 0,1.8 0.1,3.7 0.2,5.5 0,1 -0.1,1.9 -0.1,2.9 -19,2.3 -36.3,-0.3 -48.2,-17.5 -4.3,-6.3 -6.8,-13.3 -6.8,-21.1 0,-93.3 -0.1,-186.5 0.1,-279.8 0,-19 15.4,-35.8 34.3,-38.5 3,-0.4 6,-0.8 8.6,1.2 0.6,0.6 1.1,1.2 1.8,1.7 66.1,49 132.2,98 198.3,147.1 2.6,1.9 4.3,1.8 6.9,-0.1 52.8,-39 105.7,-77.9 158.5,-116.8 14,-10.7 28.2,-21.4 42.5,-32 z"
       id="path5"
       style="fill:#e65a4d" /><path
       d="m 461.1,70.3 c -14.3,10.6 -28.5,21.3 -42.8,31.9 -52.8,39 -105.7,77.8 -158.5,116.8 -2.6,1.9 -4.2,2 -6.9,0.1 C 186.9,170 120.8,121.1 54.7,72 54,71.5 53.5,70.9 52.9,70.3 c 1.2,-2 3.3,-1.3 5,-1.3 132.7,0 265.5,0 398.2,0 1.7,0 3.7,-0.7 5,1.3 z"
       id="path7"
       style="fill:#f6f4ec" /><path
       d="m 65,423 c -0.1,-1.8 -0.2,-3.7 -0.2,-5.5 0,-83.5 0,-167 0,-250.5 0,-0.5 -0.1,-1 0,-1.5 0.2,-1.4 -0.7,-3.3 0.7,-4.2 1.5,-0.9 2.7,0.8 3.8,1.6 10.4,7.2 20.8,14.5 31.2,21.7 50.7,35.3 101.4,70.6 152.1,105.9 0.9,0.7 1.8,1.5 2.6,2.2 -0.4,0.4 -0.9,0.7 -1.3,1.1 -0.3,0.3 -0.7,0.7 -1,1 -0.8,0 -1.6,0.2 -2,1 -0.3,0.3 -0.7,0.7 -1,1 -0.1,0.2 -0.3,0.3 -0.4,0.5 0.2,-0.1 0.3,-0.3 0.5,-0.4 0.3,-0.3 0.7,-0.7 1,-1 0.8,0 1.6,-0.2 2,-1 0.3,-0.3 0.7,-0.7 1,-1 1,0 2,-0.1 3,-0.1 13.9,9.7 27.9,19.3 41.8,29 41.4,28.7 82.8,57.3 124.1,86.2 7.4,5.2 15.5,9.7 22.1,16 -1.8,1.7 -4,0.6 -6,0.9 0.1,-2.3 -1.9,-2.9 -3.4,-3.9 -7.6,-5.3 -15.4,-10.4 -22.8,-15.9 -12.4,-9.1 -25,-17.8 -37.6,-26.6 -10.5,-7.3 -20.9,-14.9 -31.7,-21.8 -9.4,-6 -18.1,-13.2 -27.5,-19.3 -10.6,-6.8 -20.6,-14.4 -31.1,-21.3 -8.7,-5.7 -17.2,-11.8 -25.7,-17.8 -1.7,-1.2 -3.2,-1.7 -5,-0.5 -3.6,2.6 -8.2,4.3 -11.2,7.1 -8.6,7.9 -19.1,13 -28.1,20.2 -11.5,9.1 -23.9,17.2 -36.2,25.3 -20.4,13.5 -40.2,28.1 -60.5,41.7 -12.1,8.1 -24.1,16.3 -35.7,25.2 -3.2,2.4 -7.5,3.5 -9.5,7.5 -2,-0.2 -4.2,0.6 -6.1,-0.7 35.8,-25 71.6,-49.9 107.3,-74.9 4.7,-3.3 10,-5.9 13.9,-10.3 0.7,-0.2 1.6,-0.3 1.5,-1.3 0,-0.1 -0.2,-0.3 -0.3,-0.3 -1,-0.1 -1.2,0.7 -1.4,1.4 -3.6,0.2 -5.8,3 -8.5,4.8 C 141.3,370.8 103.1,396.9 65,423 z M 237,306 c 0.3,-0.3 0.7,-0.7 1,-1 0.8,0 1.6,-0.2 2,-1 0.3,-0.3 0.7,-0.7 1,-1 0.8,0 1.6,-0.2 2,-1 0.1,-0.2 0.3,-0.3 0.4,-0.5 -0.2,0.1 -0.3,0.3 -0.5,0.4 -0.8,0 -1.6,0.2 -2,1 -0.3,0.3 -0.7,0.7 -1,1 -0.8,0 -1.6,0.2 -2,1 -0.3,0.4 -0.6,0.7 -0.9,1.1 -0.2,0.1 -0.4,0.2 -0.5,0.4 0.2,-0.1 0.4,-0.2 0.5,-0.4 z m -13,8.9 c -0.8,0 -1.6,0.2 -2,1 -0.6,0.1 -1.4,0.1 -1.5,1 0,0.2 0.4,0.6 0.6,0.6 0.8,-0.1 0.9,-0.8 1,-1.4 0.8,-0.1 1.5,-0.2 1.9,-1.2 0.4,-0.2 0.8,-0.6 1.1,-0.9 0.8,0 1.6,-0.2 2,-1 0.3,-0.3 0.7,-0.7 1,-1 0.8,0 1.6,-0.2 2,-1 0.1,-0.2 0.3,-0.3 0.4,-0.5 -0.2,0.1 -0.3,0.3 -0.5,0.4 -0.8,0 -1.6,0.2 -2,1 -0.3,0.3 -0.7,0.7 -1,1 -0.8,0 -1.6,0.2 -2,1 -0.4,0.4 -0.7,0.7 -1,1 z m -13,9.1 c -0.8,0 -1.6,0.2 -2,1 -0.8,0.1 -1.6,0.2 -1.5,1.3 0,0.1 0.2,0.3 0.3,0.3 1.1,0.1 1.2,-0.7 1.3,-1.5 0.8,-0.1 1.5,-0.3 1.9,-1.1 0.4,-0.2 0.7,-0.6 1.1,-0.9 0.8,0 1.6,-0.2 2,-1 0.3,-0.3 0.7,-0.7 1,-1 0.8,0 1.6,-0.2 2,-1 0.1,-0.2 0.3,-0.3 0.4,-0.5 -0.2,0.1 -0.3,0.3 -0.5,0.4 -0.8,0 -1.6,0.2 -2,1 -0.3,0.3 -0.7,0.7 -1,1 -0.8,0 -1.6,0.2 -2,1 -0.4,0.3 -0.7,0.6 -1,1 z m -10,7.1 c 0.8,-0.1 1.6,-0.2 1.5,-1.3 0,-0.1 -0.2,-0.3 -0.3,-0.3 -1.1,-0.1 -1.2,0.7 -1.3,1.5 -0.8,0 -1.5,0.2 -2,1 -1.4,0.1 -2.4,0.8 -3,2 -0.7,0.2 -1.6,0.2 -1.5,1.3 0,0.1 0.2,0.3 0.3,0.3 1,0.1 1.2,-0.7 1.3,-1.5 1.4,0 2.8,-0.1 3,-2 0.9,-0.1 1.6,-0.3 2,-1 z m 32.8,-23.7 c -0.1,0.3 -0.3,0.6 -0.4,0.8 0.3,0.1 0.6,0.4 0.8,0.3 0.2,-0.1 0.3,-0.5 0.4,-0.8 -0.3,-0.1 -0.6,-0.2 -0.8,-0.3 z m -28.1,20.7 c -0.1,-0.3 -0.2,-0.7 -0.4,-0.7 -0.2,-0.1 -0.7,0.1 -0.8,0.3 -0.3,0.4 -0.1,0.9 0.4,0.9 0.3,0 0.5,-0.3 0.8,-0.5 z m 41.6,-28.5 c 0.1,-0.3 0.2,-0.6 0.4,-0.8 -0.3,-0.1 -0.6,-0.4 -0.8,-0.3 -0.2,0.1 -0.3,0.5 -0.4,0.8 0.2,0.1 0.5,0.2 0.8,0.3 z M 192.7,337 c -0.2,-0.3 -0.4,-0.6 -0.5,-0.7 -0.2,0 -0.7,0.2 -0.7,0.4 -0.2,0.5 0.1,0.9 0.6,0.8 0.2,0 0.4,-0.3 0.6,-0.5 z"
       id="path9"
       style="fill:#e6e3d6" /><path
       d="m 445,425.1 c -6.6,-6.4 -14.6,-10.8 -22.1,-16 -41.3,-28.8 -82.7,-57.5 -124.1,-86.2 -13.9,-9.7 -27.9,-19.3 -41.8,-29 0,-0.3 -0.1,-0.7 -0.1,-1 20.6,-14.3 41.2,-28.6 61.8,-42.9 41.6,-28.7 83.2,-57.3 124.7,-86 1.3,-0.9 2.6,-2.1 4.4,-2.1 0,88 0,176 0,264.1 -0.8,-0.3 -1.8,-0.6 -2.8,-0.9 z"
       id="path11"
       style="fill:#b6b5ac" /><path
       d="m 73,426 c 1.9,-4 6.3,-5.1 9.5,-7.5 11.6,-8.8 23.6,-17.1 35.7,-25.2 20.3,-13.7 40.1,-28.2 60.5,-41.7 12.3,-8.1 24.7,-16.2 36.2,-25.3 9.1,-7.2 19.5,-12.3 28.1,-20.2 3.1,-2.8 7.6,-4.5 11.2,-7.1 1.7,-1.3 3.2,-0.8 5,0.5 8.5,6 17,12.1 25.7,17.8 10.5,6.9 20.5,14.6 31.1,21.3 9.4,6 18.1,13.2 27.5,19.3 10.8,6.9 21.2,14.5 31.7,21.8 12.6,8.8 25.3,17.5 37.6,26.6 7.5,5.5 15.2,10.6 22.8,15.9 1.4,1 3.5,1.6 3.4,3.9 C 317,426 195,426 73,426 z"
       id="path13"
       style="fill:#e6e3d6" /><path
       d="m 448,426 c 0,-88 0,-176 0,-264.1 4.3,-4.7 9.9,-7.6 15,-11.3 12.6,-9.2 25.3,-18.1 37.9,-27.1 0.9,-0.7 1.8,-1.5 3.1,-1.5 0.1,1.7 0.2,3.3 0.2,5 0,85.1 0,170.3 0.1,255.4 0,5.8 -0.2,11.6 -1.6,17.4 -2.5,10.7 -8.9,18.1 -19.3,21.8 -11.5,4 -23.4,5.1 -35.4,4.4 z"
       id="path15"
       style="fill:#b1392f" /><path
       d="m 188.1,340.1 c -3.9,4.4 -9.2,7 -13.9,10.3 -35.7,25 -71.5,50 -107.3,74.9 -0.7,0.2 -1.3,0.4 -2,0.6 0,-1 0.1,-1.9 0.1,-2.9 38.2,-26.1 76.3,-52.2 114.5,-78.3 2.7,-1.8 4.8,-4.7 8.5,-4.8 l 0.1,0.2 z"
       id="path17"
       style="fill:#bebdb3" /><path
       d="m 257,292.9 c 0,0.3 0,0.7 0.1,1 -1,0 -2,0.1 -3,0.1 0,0 0,0 0,0 0.4,-0.4 0.9,-0.7 1.3,-1.1 0.4,0 1,0 1.6,0 z"
       id="path19"
       style="fill:#c7c5bb" /><path
       d="m 195.9,333.9 c 0.6,-1.2 1.6,-1.9 3,-2 l 0.1,0.1 c -0.2,1.9 -1.6,2 -3,2 l -0.1,-0.1 z"
       id="path21"
       style="fill:#bebdb3" /><path
       d="m 233.8,307.4 c 0.3,0.1 0.6,0.2 0.8,0.3 -0.1,0.3 -0.2,0.7 -0.4,0.8 -0.2,0.1 -0.5,-0.2 -0.8,-0.3 0.1,-0.2 0.2,-0.5 0.4,-0.8 z"
       id="path23"
       style="fill:#c4c2b8" /><path
       d="m 200.9,330.9 c 0.1,-0.8 0.3,-1.5 1.3,-1.5 0.1,0 0.3,0.2 0.3,0.3 0,1.1 -0.8,1.1 -1.5,1.3 0,0.1 -0.1,-0.1 -0.1,-0.1 z"
       id="path25"
       style="fill:#bebdb3" /><path
       d="m 205.7,328.1 c -0.2,0.2 -0.5,0.5 -0.7,0.4 -0.5,0 -0.7,-0.5 -0.4,-0.9 0.1,-0.2 0.6,-0.3 0.8,-0.3 0.1,0.1 0.1,0.6 0.3,0.8 z"
       id="path27"
       style="fill:#bebdb3" /><path
       d="m 247.3,299.6 c -0.3,-0.1 -0.6,-0.2 -0.8,-0.4 0.1,-0.3 0.2,-0.7 0.4,-0.8 0.2,-0.1 0.5,0.2 0.8,0.3 -0.2,0.3 -0.3,0.6 -0.4,0.9 z"
       id="path29"
       style="fill:#c7c5bb" /><path
       d="m 209.1,325.1 c -0.1,0.8 -0.3,1.5 -1.3,1.5 -0.1,0 -0.3,-0.2 -0.3,-0.3 0,-1.1 0.8,-1.1 1.5,-1.3 0,0 0.1,0.1 0.1,0.1 z"
       id="path31"
       style="fill:#bebdb3" /><path
       d="m 222.1,316.1 c -0.1,0.7 -0.2,1.3 -1,1.4 -0.2,0 -0.6,-0.4 -0.6,-0.6 0.1,-0.8 0.8,-0.9 1.5,-1 0,0.1 0.1,0.2 0.1,0.2 z"
       id="path33"
       style="fill:#c2c0b6" /><path
       d="m 196.1,334.1 c -0.2,0.8 -0.3,1.5 -1.3,1.5 -0.1,0 -0.3,-0.2 -0.3,-0.3 -0.1,-1.1 0.8,-1.1 1.5,-1.3 -0.1,-0.1 0.1,0.1 0.1,0.1 z"
       id="path35"
       style="fill:#bebdb3" /><path
       d="m 192.7,337 c -0.2,0.2 -0.4,0.5 -0.6,0.5 -0.6,0.1 -0.8,-0.3 -0.6,-0.8 0.1,-0.2 0.5,-0.4 0.7,-0.4 0.1,0.1 0.3,0.5 0.5,0.7 z"
       id="path37"
       style="fill:#bebdb3" /><path
       d="m 187.9,339.9 c 0.2,-0.8 0.3,-1.5 1.4,-1.4 0.1,0 0.3,0.2 0.3,0.3 0.1,1.1 -0.8,1.1 -1.5,1.3 0,0 -0.2,-0.2 -0.2,-0.2 z"
       id="path39"
       style="fill:#bebdb3" /><path
       d="m 240,304 c -0.4,0.8 -1.2,1 -2,1 0,0 -0.1,-0.1 -0.1,-0.1 0.5,-0.7 1.2,-0.9 2.1,-0.9 l 0,0 z"
       id="path41"
       style="fill:#c4c2b8" /><path
       d="m 199,331.9 c 0.4,-0.8 1.2,-1 2,-1 0,0 0.1,0.1 0.1,0.1 -0.4,0.8 -1.2,1 -2,1 0,0.1 -0.1,-0.1 -0.1,-0.1 z"
       id="path43"
       style="fill:#bebdb3" /><path
       d="m 228,312 c 0.4,-0.8 1.2,-1 2,-1 l 0.1,0.1 c -0.5,0.7 -1.2,0.9 -2.1,0.9 l 0,0 z"
       id="path45"
       style="fill:#c2c0b6" /><path
       d="m 227,313 c -0.4,0.8 -1.2,1 -2,1 l 0,0 c 0.4,-0.8 1.1,-1 2,-1 0,0 0,0 0,0 z"
       id="path47"
       style="fill:#c2c0b6" /><path
       d="m 215,321 c 0.4,-0.8 1.2,-1 2,-1 l 0.1,0.1 c -0.5,0.7 -1.2,0.9 -2.1,0.9 0,0 0,0 0,0 z"
       id="path49"
       style="fill:#bebdb3" /><path
       d="m 214,322 c -0.4,0.8 -1.2,1 -2,1 l 0,0 c 0.4,-0.9 1.1,-1 2,-1 l 0,0 z"
       id="path51"
       style="fill:#bebdb3" /><path
       d="m 211,324 c -0.4,0.8 -1.2,1 -2,1 0,0 -0.1,-0.1 -0.1,-0.1 0.5,-0.7 1.2,-0.9 2.1,-0.9 0,0 0,0 0,0 z"
       id="path53"
       style="fill:#bebdb3" /><path
       d="m 253,295 c -0.4,0.8 -1.2,1 -2,1 0,0 -0.1,-0.1 -0.1,-0.1 0.5,-0.7 1.2,-0.9 2.1,-0.9 0,0 0,0 0,0 z"
       id="path55"
       style="fill:#c7c5bb" /><path
       d="m 241,303 c 0.4,-0.8 1.2,-1 2,-1 l 0,0 c -0.4,0.8 -1.1,1 -2,1 0,0 0,0 0,0 z"
       id="path57"
       style="fill:#c4c2b8" /><path
       d="m 224,315 c -0.4,0.8 -1.2,1 -2,1 0,0 -0.1,-0.1 -0.1,-0.1 0.5,-0.7 1.2,-0.9 2.1,-0.9 0,-0.1 0,0 0,0 z"
       id="path59"
       style="fill:#c2c0b6" /><path
       d="m 214,322 c 0.3,-0.3 0.7,-0.7 1,-1 0,0 0.1,0.1 0.1,0.1 -0.4,0.3 -0.7,0.6 -1.1,0.9 0,0 0,0 0,0 z"
       id="path61"
       style="fill:#bebdb3" /><path
       d="m 225,314 c -0.3,0.3 -0.7,0.7 -1,1 0,0 -0.1,-0.1 -0.1,-0.1 0.4,-0.3 0.7,-0.6 1.1,-0.9 0,0 0,0 0,0 z"
       id="path63"
       style="fill:#c2c0b6" /><path
       d="m 237,306 c 0.3,-0.3 0.7,-0.7 1,-1 0,0 0.1,0.1 0.1,0.1 -0.4,0.3 -0.7,0.6 -1.1,0.9 l 0,0 z"
       id="path65"
       style="fill:#c4c2b8" /><path
       d="m 230,311 c 0.2,-0.1 0.3,-0.3 0.5,-0.4 -0.2,0.1 -0.3,0.3 -0.5,0.4 0,0 0,0 0,0 z"
       id="path67"
       style="fill:#c2c0b6" /><path
       d="m 243,302 c 0.2,-0.1 0.3,-0.3 0.5,-0.4 -0.2,0.1 -0.3,0.3 -0.5,0.4 0,0 0,0 0,0 z"
       id="path69"
       style="fill:#c4c2b8" /><path
       d="m 250,297 c -0.2,0.1 -0.3,0.3 -0.5,0.4 0.2,-0.1 0.3,-0.3 0.5,-0.4 0,0 0,0 0,0 z"
       id="path71"
       style="fill:#c7c5bb" /><path
       d="m 250,297 c 0.3,-0.3 0.7,-0.7 1,-1 0,0 0.1,0.1 0.1,0.1 -0.4,0.3 -0.7,0.6 -1.1,0.9 0,0 0,0 0,0 z"
       id="path73"
       style="fill:#c7c5bb" /><path
       d="m 240,304 c 0.3,-0.3 0.7,-0.7 1,-1 0,0 0.1,0.1 0.1,0.1 -0.4,0.3 -0.7,0.6 -1.1,0.9 0,0 0,0 0,0 z"
       id="path75"
       style="fill:#c4c2b8" /><path
       d="m 254,294 c -0.3,0.3 -0.7,0.7 -1,1 0,0 -0.1,-0.1 -0.1,-0.1 0.4,-0.3 0.7,-0.6 1.1,-0.9 0,0 0,0 0,0 z"
       id="path77"
       style="fill:#c7c5bb" /><path
       d="m 237,306 c -0.2,0.1 -0.3,0.3 -0.5,0.4 0.2,-0.1 0.3,-0.3 0.5,-0.4 0,0 0,0 0,0 z"
       id="path79"
       style="fill:#c4c2b8" /><path
       d="m 217,320 c 0.2,-0.1 0.3,-0.3 0.5,-0.4 -0.2,0.1 -0.3,0.3 -0.5,0.4 0,0 0,0 0,0 z"
       id="path81"
       style="fill:#bebdb3" /><path
       d="m 228,312 c -0.3,0.3 -0.7,0.7 -1,1 0,0 -0.1,-0.1 -0.1,-0.1 0.4,-0.3 0.7,-0.6 1.1,-0.9 0,0 0,0 0,0 z"
       id="path83"
       style="fill:#c2c0b6" /><path
       d="m 212,323 c -0.3,0.3 -0.7,0.7 -1,1 0,0 -0.1,-0.1 -0.1,-0.1 0.4,-0.3 0.7,-0.6 1.1,-0.9 0,0 0,0 0,0 z"
       id="path85"
       style="fill:#bebdb3" /></g></svg></g></g></svg>