<svg xmlns="http://www.w3.org/2000/svg" xmlns:xlink="http://www.w3.org/1999/xlink" width="16" height="16" xmlns:v="https://vecta.io/nano"><defs><linearGradient id="A" gradientUnits="userSpaceOnUse"><stop offset="0%" stop-color="#fff" stop-opacity=".4"/><stop offset="100%" stop-color="#fff" stop-opacity="0"/></linearGradient><linearGradient xlink:href="#A" id="B" x1="175.074239320208" y1="265.97437596541" x2="179.841267655172" y2="265.97437596541"/><linearGradient xlink:href="#A" id="C" x1="178.012813415893" y1="261.207355596632" x2="179.775954410122" y2="261.207355596632"/><linearGradient xlink:href="#A" id="D" x1="178.01280049944" y1="261.207357390389" x2="183.041041044384" y2="261.207357390389"/><linearGradient xlink:href="#A" id="E" x1="183.10635854098" y1="258.203469402216" x2="185.196014806699" y2="258.203469402216"/><linearGradient xlink:href="#A" id="F" x1="185.261317518722" y1="258.203456388526" x2="187.677473730574" y2="258.203456388526"/><linearGradient xlink:href="#A" id="G" x1="187.546887270633" y1="261.011455278464" x2="192.509829404332" y2="261.011455278464"/><linearGradient xlink:href="#A" id="H" x1="190.942561423049" y1="261.011441117592" x2="192.575113379239" y2="261.011441117592"/><linearGradient xlink:href="#A" id="I" x1="190.942586382578" y1="266.039677368864" x2="195.709613874011" y2="266.039677368864"/><linearGradient xlink:href="#A" id="J" x1="190.8772628622" y1="268.521158221181" x2="195.70961720703" y2="268.521158221181"/><linearGradient xlink:href="#A" id="K" x1="190.811962561904" y1="270.74142586953" x2="192.771038465536" y2="270.74142586953"/><linearGradient xlink:href="#A" id="L" x1="187.546879946206" y1="274.071820813586" x2="192.640409209732" y2="274.071820813586"/><linearGradient xlink:href="#A" id="M" x1="185.391922995923" y1="274.071815441856" x2="187.612176392792" y2="274.071815441856"/><linearGradient xlink:href="#A" id="N" x1="182.975754771256" y1="273.941210404207" x2="185.326622642484" y2="273.941210404207"/><linearGradient xlink:href="#A" id="O" x1="177.947510979582" y1="274.071825889456" x2="182.975740880082" y2="274.071825889456"/><linearGradient xlink:href="#A" id="P" x1="178.143414183302" y1="270.67613088642" x2="179.710660219822" y2="270.67613088642"/><linearGradient xlink:href="#A" id="Q" x1="175.008938759953" y1="268.521148226715" x2="179.710671182422" y2="268.521148226715"/><path id="R" d="M177.94751 275.83497l5.02824-1.76315h0v.0653"/></defs><g transform="matrix(.7105690000000001 -.2919572 .2919572 .7105690000000001 -202.552173 -129.136128)"><g fill="none" stroke="#000" stroke-width=".1"><path d="M187.6774798 262.839894l3.23636 3.28806-.0366 4.61346-3.28806 3.23635-4.61346-.0366-3.23635-3.28806.0366-4.61346 3.28806-3.23636z"/><path d="M192.64044 261.07673l3.07565 7.33294-3.01035 7.35998-7.33293 3.07565-7.35999-3.01035-3.07565-7.33293 3.01035-7.35998 7.33293-3.07566z"/><path d="M179.84126 265.97438l-4.76703 2.41617"/><path d="M178.01281 261.20735l1.76315 4.83233m3.26509-3.19978l-5.02824-1.63255m7.1832-3.00388l-2.08966 4.63643m4.57113 0l-2.41617-4.63643"/><path d="M192.50982 261.01145l-4.96294 1.76315m3.39569 3.3304l1.63255-5.09355"/><path d="M195.70961 268.32525l-4.76704-2.28557m-.0653 4.63645l4.83234-2.15498m-2.93858 7.31382l-1.95906-5.09354m-3.26509 3.33039l5.09354 1.63253"/><path d="M185.39192 278.83884l2.22026-4.76702m-4.63643-.1306l2.35087 4.83232"/><use xlink:href="#R"/><path d="M179.71066 270.67613l-1.56725 5.15884"/><path d="M175.00893 268.52115l4.70173 2.22028"/></g><path d="M179.84126 265.97438l-4.76703 2.41617" fill="url(#B)"/><path d="M178.01281 261.20735l1.76315 4.83233" fill="url(#C)"/><path d="M183.04105 262.8399l-5.02824-1.63255" fill="url(#D)"/><path d="M185.19601 258.20347l-2.08966 4.63643" fill="url(#E)"/><path d="M187.67748 262.8399l-2.41617-4.63643" fill="url(#F)"/><path d="M192.50982 261.01145l-4.96294 1.76315" fill="url(#G)"/><path d="M190.94257 266.105l1.63255-5.09355" fill="url(#H)"/><path d="M195.70961 268.32525l-4.76704-2.28557" fill="url(#I)"/><path d="M190.87727 270.67613l4.83234-2.15498" fill="url(#J)"/><path d="M192.77103 275.83497l-1.95906-5.09354" fill="url(#K)"/><path d="M187.54688 274.07182l5.09354 1.63253" fill="url(#L)"/><path d="M185.39192 278.83884l2.22026-4.76702" fill="url(#M)"/><path d="M182.97575 273.94122l2.35087 4.83232" fill="url(#N)"/><use xlink:href="#R" fill="url(#O)"/><path d="M179.71066 270.67613l-1.56725 5.15884" fill="url(#P)"/><path d="M175.00893 268.52115l4.70173 2.22028" fill="url(#Q)"/></g><path d="M5.8108381 11.344134l-1.5868867-.679555-.6509874-1.6248154-.6509877-1.624815.6777257-1.5901945.7142673-1.6189399c.0200977-.0158088.7547467-.3176942 1.6325527-.6708539l1.5960108-.6421083 1.6101123.6875944 1.6101129.6875941.644577 1.6031065.63482 1.6668794c-.0054.035076-.312149.7690345-.681738 1.6310205l-.67198 1.5672471-1.6062226.645693-1.6453562.643698c-.0215238-.001085-.7532325-.307796-1.6260201-.681551z"/><g fill="#999"><path d="M5.9980115 1.4619783L4.4674477.23170827c-.039434.0118798-.046951.008558-.027428-.0121204s.8181824-.0267184 2.9312129-.0219991l2.9043184.0064864L8.9392791 1.4030168 7.5386299 2.6552861l-.064377.053327z"/><path d="M4.3495073 4.0448322l.0635738-1.8510241.0636183-1.85511604C4.4769904.31179793 7.37725 2.7618753 7.3926599 2.8020335c.0093424.0243443-.4174374.2061721-1.515151.6455193l-1.5280016.5972794z"/></g><path d="M9.150348 3.4633603l-1.556073-.7097342L10.437307.2250459c.01521.0152051.31779 3.7935989.309219 3.8612362-.0066.051868-.118991.008-1.596178-.6229218z" fill="#1a1a1a"/><g fill="#4d4d4d"><path d="M4.384884 3.4501457l.035322-1.0905266.028377-.8928288.026093-.73922342.014978-.36933714.714263.59806596 1.9559487 1.6560404.197698.1836866c.00103.00852-.1035733.063814-.232482.1228667L4.3867329 4.0177299c-.010948 0-.011782-.2554129-.00185-.5675842z"/><path d="M2.2947532 2.3864377L4.3671741.32818649c.0039899.00398886-.0212752.83863751-.0561398 1.85477511l-.0635559 1.8894352c-.0001021.0230531-.0176292.048614-.0389741.0568049s-.8736783.0779489-1.8940728.1550173l-1.97005465.1539232-.11479229.013798z"/><path d="M1.5725189 5.9219708L.31349481 4.5406725l1.90871369-.1453534 1.9177525-.1363144c.0109035.0109035-1.2646816 3.0037093-1.2903954 3.0275527-.0099113.0091917-.5845835-.6048726-1.2770467-1.3645866zM.19132047 7.4685842l.047366-2.8506751L2.7251866 7.3521006c.046393.053835.038312.06391-1.2319558 1.5358297L.20294789 10.369569c-.006395 0-.0116274-1.3054429-.0116274-2.9009848z"/><path d="M2.1810533 10.623046l-1.89407259-.09867c-.0526131-.000952-.0956602-.01196-.0956602-.02443s.015052-.02108.0334489-.01913.61118215-.6658128 1.31730049-1.4839145l1.3017678-1.4667902c.018973.021886 1.2492871 3.0757177 1.2698423 3.1519457.00955.03542-.00307.04395-.061088.04127l-1.8715383-.100283zM12.639906 4.2145241l-1.77636-.1050589c-.0058-.00414-.312544-3.87849593-.307436-3.88360375s.930968.91833435 2.062964 2.04659605l2.058176 2.051385-.132221-.00335-1.905123-.1059625z"/><path d="M11.487304 5.7901892l-.62966-1.5683841h.108073c.08966 0 3.480932.1893552 3.765959.2102763.07101.00521.08928.017304.08928.059084 0 .03453-.457908.5327814-1.336303 1.4540357l-1.351997 1.4074386c-.0086.00326-.299043-.6998393-.645355-1.5624506z"/><path d="M13.500848 8.9617753l-1.320111-1.4433309c0-.027842.546063-.6207107 1.320111-1.4332612l1.320111-1.3857769.0066 1.4193102v2.8291073l-.0066 1.4097972z"/><path d="M10.840878 10.659531l.672573-1.5742083.608288-1.4245487L13.44097 9.05703l1.298591 1.414015c-.01135.0098-.858623.08332-1.882825.163459l-1.971165.160193-.108978.01449z"/><path d="M2.2883514 12.747382L.11255855 10.586399.11367536 7.5285845l.0011168-3.0578147L2.2735972 2.292781 4.4324021.11479228l3.064244.00043339L10.56089.11565906l2.174676 2.15735614 2.174676 2.1573562v3.0410255l.03061 3.0716361c.02381.02381.02221.03061-.0072.03061-.02079 0-1.005513.975734-2.188279 2.168298L10.59489 14.91024l-3.0653813-.000926-3.0653815-.000926zm5.2479021 2.111634l3.0373915.000609.000153-.108618.186974-3.913827c.01067-.01066 2.080114-.18774 2.198002-.188076.04209-.000128.472562-.03289.956602-.07282l.890704-.06313c.03664.03266-.111766.05197-.84687.110178l-.762535.0735c.03263.0046.367156-.01633.743381-.04659l.748184-.04667c.05588.0073-.200088.273708-1.986965 2.068324l-2.050496 2.002487.188508-3.762655c.0083-.0083.241813-.03458.51886-.05835l.401686-.04612c-.131414-.0038-.931184.06409-.947459.08036-.0105.0105-.186597 3.61022-.187424 3.831244-.000255.06844.222015-.145778 2.117437-2.040752l2.110902-2.148292c-.0059-.02698-2.717869-2.9152612-2.737285-2.9152612-.004 0-.312918.7152481-.686414 1.5894404l-.679085 1.5894408-1.6184241.649009-1.6189936.666676c-.0003175.0097.6773159.622287 1.5058433 1.361268l1.4929154 1.357098c-.0183.0183.07151.09643-1.5394411-1.339274l-1.4856206-1.256338c-.080984.04334-.113657.02974-.063005-.02623.027859-.03078.037178-.06023.023085-.07294s-.7468222-.329036-1.6307229-.705135l-1.6326016-.702929c-.0140309-.010512-.3181999-.7490196-.6759321-1.6411279l-.6663958-1.6220157c-.00878 0-.5782971.6514462-1.2655817 1.4476582L.20759148 10.443817c-.00490784-.005761.58054768-.692918 1.30101302-1.5270161l1.3099372-1.5165417-.0607309-.0650409-1.314452-1.4404308L.21471154 4.4943228c.01379077-.0137901.91815866-.0929018 2.00970646-.1758022l2.0154714-.1811184c.0223546-.0220292.0487984-.5562364.0961236-1.9419317L4.413589.27163686c.00676-.00676.018386-.006196.025837.001254S4.42371 1.139163 4.387948 2.1813844l-.054909 1.9050624c.00556.00556.7161326-.2737112 1.5790431-.6206095l1.5689272-.6307245-.0671518-.0699048c-.0369329-.0384474-.7099882-.6111058-1.4956777-1.2725739L4.4790727.25991786c-.017264-.04902193.1237218.06648693 1.5780874 1.29292264l1.4190681 1.1739646c.0165709.0014816.6704809-.5712611 1.4531353-1.2727696L10.352372.17856577 7.4084219.17208058 4.4644725.16559539 2.3151418 2.3148132.16581107 4.4640309v3.0486352 3.0486349l2.15040703 2.149846L4.45263 14.876953c-.0077.0088-.0004498.0082.016118-.0013s1.3969397-.01698 3.0675048-.01664zm3.8703095-5.7213915l.692617-1.6203099-.654353-1.6343572-.654353-1.6343571-1.6127427-.6893968-1.6350426-.6893964c-.035579 0-3.250887 1.2970377-3.2702849 1.3192151-.00964.011015-.3247845.7416077-.700332 1.6235389l-.6828136 1.6035107.6566958 1.6361825.6566958 1.6361827 1.6209896.691757 1.6209896.691757 1.6346586-.657008 1.6346584-.657009zm.980973 1.6393395l.503693-.06104c-.0049-.0041-.238569.0123-.519172.03648l-.41818.0474c.0506.0019.245751-.0084.433659-.02284zm2.465519-4.7096206l-.0066-1.4412444-1.35034 1.4175208-1.354239 1.4704378c-.0028.037523.390051.4695272 1.35034 1.4850541l1.354239 1.4321373.0066-1.4613309V6.0673434zm-1.358585-.08271l1.359607-1.4733183c.0042-.028399-.0073-.063271-.02551-.077492-.03605-.028144-3.962735-.2576144-3.987335-.2330143-.0082.00818.237437.6447324.545806 1.4145704l.739447 1.7930191c.0088-.00114.624386-.6418389 1.367985-1.4237649zm-9.9659793-.1861543l.6581005-1.5693725c-.0137954-.0137954-3.82571499.2760646-3.87345566.2945399-.03487857.0134964.22151146.3087082 1.23720566 1.4245339l1.2964302 1.4093941c.0083767.0010319.3151494-.7005555.6817193-1.5590954zm9.1188263-3.5462023L10.535672.16977045c-.01169.0116871.276922 3.78675865.300032 3.92448755.0054.032404.27984.05433 1.791762.1431705l1.951134.1084149.165792.00351zm-2.022668-.1351702L10.457775.16898509c-.0063-.00625-.03152.006339-.05616.0279762L7.5302839 2.7901902c.00276.00871.7316878.3264009 1.6198466.7059713l1.6224315.623915c.0042-.036417-.06238-.9377534-.147913-2.0029699z"/><path d="M9.6170423 13.96159l-1.4952252-1.334286-.5768869-.514924 1.5934182-.638763 1.5934186-.638763-.01578.245659-.09226 1.942033-.08241 1.72739c-.0033.01706-.419182-.337698-.9242676-.788346z"/><path d="M4.6308663 14.798342l1.450245-1.290561 1.4591858-1.233722c.025461.01181.6523754.562027 1.3931415 1.222709l1.4233764 1.268286.07653.06705-2.9199149.000794c-2.4902641.000688-2.9144184-.0044-2.8825618-.03457z"/><path d="M4.6020024 14.648771c-.00504-.01317-.3745508-3.858438-.3710747-3.861592s2.9751808 1.263614 3.148693 1.341624c.054201.02437-.043017.116637-1.3447472 1.276306l-1.4328711 1.243662z"/></g><g fill="#1a1a1a"><path d="M2.3705691 12.715438L.30458751 10.625483l3.80916439.214246c.026967.02697.3920932 3.924223.3697465 3.94657-.010951.01095-.9617705-.920935-2.1129293-2.070861zm2.0294623-9.0467433L4.497356.59294781l.0178064-.19784349.9519314.80211328 1.8343771 1.6138496c-.0172111.0171476-.1575652.0844071-.3118969.1494634L4.4577664 3.9778955l-.057396.017764z"/><path d="M2.3086454 2.3978381L4.3461093.39842191c.0116475.03494259-.0978144 3.58462079-.1128826 3.66061469-.00894.0451-.035093.056769-.1577497.070391l-3.76930408.2963937c-.013997.0000322.88711558-.9125604 2.00247248-2.0279832zM6.0394743 14.808204l-1.3837599-.012755 1.1541752-1.023572 1.6467952-1.434657.076294-.05433.353278.309263 1.418432 1.256278 1.0651542.947015-.108552.0059c-.2616873.01413-2.9587648.01853-4.2218169.0069zm-1.4956768-.887759l-.2963013-3.09562c-.0001876-.0172.2857394.102262 2.0873023.872045l1.0543538.450511-.3273359.307612-2.3829436 2.124376-.065875.04765zm5.6483795.523057l-1.4685458-1.299721-1.150851-1.026818 1.4813002-.593027 1.5762226-.630856.09492-.03783-.0114.06965c-.0063.03831-.04657.861715-.08956 1.829797l-.09628 1.860927-.01812.100779z"/><path d="M10.683978 14.207844l.16457-3.17503.01877-.114793.305953-.03142.45901-.05385.153057-.02242-.204075-.0039c-.130829-.0025-.191172-.01211-.168125-.0267s.05008-.01734.06735-.01071.156062-.000793.308426-.0165l.315289-.02887c.02104-.000173.164536-.01131.318868-.02475l.573961-.03903.310402-.0251c.02859-.01761.646578-.04021.629381-.02301s-.254662.03643-.44235.03749c-.05612.000317-.136475.01115-.178565.02408-.07276.02236-.07087.02358.03826.02498.06314.000793.327158-.0151.586716-.03535.578529-.04513.714263-.04702.714263-.01s-3.733869 3.78512-3.888028 3.908029l-.09988.07963zm1.862255-3.43243c.170776-.0153.321982-.0396.336012-.05401s-.01902-.0214-.114792-.01108l-.535698.04181c-.0491.000714-.12946.01132-.178565.02358-.08576.02141-.08392.02239.04663.0249.07475.0014.275638-.0099.446415-.0252z"/><path d="M10.810854 10.769481l1.322496-3.0528889c.04026 0 2.589157 2.7216689 2.568367 2.7424579-.01101.01101-1.149103.108435-2.674037.22891l-1.181824.100614c-.0285.0067-.04212-.000741-.035-.01909zm3.15554-1.3385024l-1.702145-1.8356093-.06414-.082959.147361-.1678463 1.528321-1.6280913.919659-.9669891.0066 1.3942713v2.7789727l-.0066 1.3847014z"/><path d="M12.07838 7.193345l-1.192274-2.9598961c.0185-.015653 3.897671.2105194 3.915438.2282867.0065.00652-.006.037338-.02779.068473-.09047.1291632-1.515251 1.6432032-2.278082 2.4207975l-.362565.3695817z"/><path d="M13.787828 4.2685006l-1.628163-.095996-1.270822-.086168c-.0069-.0069-.02301-.1256025-.03579-.2637835L10.57928.28958682c.0039-.011547.914416.88569698 2.02333 1.99387548l2.016208 2.0148701-.23055-.00373-.600437-.026101zM2.4203861 6.8169326L.37834157 4.5619781c.01426025-.0142611.43353132-.0481849 2.47552193-.2003026l1.2427916-.0835374c.0275735.0095276-1.1931176 2.9047395-1.2477377 2.9593595-.010459.0104616-.2032994-.1787938-.4285313-.420565zM.21409897 8.6594211l.002731-2.8489349.01275458-1.1790884L1.4285262 5.9467932 2.6748983 7.324487c.046722.061369.046479.063713-.016346.1570512-.0897835.1333899-.2747662.3516852-1.3522754 1.595801L.2906277 10.251255l-.0665044.07801z"/><path d="M3.6286466 10.699045c-.00347-.0082-.7582019-.05295-1.6771778-.09945l-1.69125697-.145637c.03478842-.012804.54817348-.5871255 1.29538417-1.4491414l1.2887936-1.4238041c.026808.029787 1.1874902 2.9064385 1.2350406 3.0609435.016573.05385.010014.05581-.2136865.06377-.1269317.0045-.2336252.0015-.2370971-.0067zm.7820909-7.130807l.028614-.991789.076963-2.04600403.0143927-.10728994.8212836.69284827 1.9309424 1.6791439c0 .0091-.090358.057845-.2007958.1083276L4.4670686 3.955502l-.070957.017809zm6.2394355.4997669c-.140838-.0388323-2.3026817-.9570389-2.8187885-1.1972332L7.6018 2.763924l.0785625-.0682281.892829-.7975777L10.426073.31243037c.01644.0402808.105832 1.09482133.251103 2.96206063l.04455.7418152c-.0068.060497-.01587.067053-.07155.051699z"/></g><path d="M12.946018 4.2091022l-1.46114-.0903933-.566699-.0604351c-.028237-.02141-.057221-.2825202-.126259-1.1374479L10.60627.3740201c.0069-.0292501.622391.56866662 1.984794 1.9281023l1.974801 1.9705004-.344377-.00289-1.27547-.060634z" fill="#333"/><g fill="#f2f2f2"><path d="M.36988625 4.3844585c0-.021183 3.48891055-3.51060826 3.81033935-3.81090317L4.329966.43365972l-.0170868.80354598-.053109 1.8107988-.0751 1.035827c-.021492.015716-.1281125.035965-.2369335.044998l-3.31637975.2602478c-.1473709.01007-.2614713.00805-.2614713-.00462z"/><path d="M2.5347363 6.906669L.42090504 4.5767958c0-.012854.0209965-.023368.0466587-.023368s.41308628-.028423.86094216-.063162l2.6534888-.1919322c.081583 0 .088563.00548.073127.057396-.027137.09127-.5172554 1.2711446-.8291811 1.9961103l-.3246207.7589046c-.021587.052613-.046299.09566-.054913.09566s-.1488655-.1348808-.3116706-.2997355z"/></g><path d="M4.4104287 3.5555555l.029062-.9918612.077835-2.04634729.014811-.0948785.2338517.19824107.8970959.75655222L7.282931 2.7951472c0 .0091-.094704.059853-.2104525.1127892L4.466282 3.9556988l-.070746.017756zm-1.863864 3.3370109L.93928281 5.1528979c-.48259272-.5407675-.50663877-.5711166-.46288756-.5842227.03442996-.0103135 3.19966365-.2415074 3.41967525-.2497786.066374-.00249.1275958.00238.1360493.010832.024357.024357-1.1391752 2.8083456-1.1857427 2.8371259-.010094.00624-.1450107-.1171911-.2998124-.2742881z" fill="gray"/><path d="M6.8226428 2.1377816L4.6539623.33252931 4.4967958.21682986h2.8598585l2.8598587.010825c0 .0107331-2.5885843 2.33532604-2.6911083 2.41666134-.051863.041144-.072001.026628-.7027619-.5065346zM.2337784 9.5230327l.00558748-4.2501251.01572807-.5942536.58803756.6452725L2.6912414 7.3927114c0 .055558-.060058.1273141-1.6802313 2.0075009l-.70441819.8115747-.0559591.05905z" fill="#333"/><path d="M3.4182589 10.675349l-1.2372056-.07425-1.84414405-.119945-.07124108-.014079.17656453-.185876 1.0558825-1.1902983 1.3264664-1.4635906c.033641 0 .075662.099472.7251268 1.7165338l.5074814 1.3263911c-.026615.02661-.3762155.02941-.6389309.0051zm7.2319141-6.6073123c-.138521-.0382625-2.2794184-.9470856-2.8175039-1.1960468L7.6043689 2.76636l.062489-.0593267L10.336811.33312129l.08203-.0683418.01332.0589307c.01302.0575619.137862 1.56034891.24476 2.94616831l.04525.7546017c-.007.05185-.01795.058488-.07201.043557zm3.645718.194814c-.0058-.00548-.257433-.018677-.559081-.029315l-.765282-.031818-.427048-.020053c-.11562-.00417-.221945-.014825-.236279-.023683s-.104491-.013563-.200352-.010454-.187435-.00246-.203501-.012401-.11255-.017714-.21441-.017298c-.181344.0007409-.617034-.036064-.723753-.061137-.05937-.013949-.07338-.077119-.10323-.4655021-.0089-.1161576-.0267-.2111957-.03948-.2111957s-.01571-.012203-.0065-.027115c.01939-.03137-.04162-.9167594-.06317-.916679-.0079.0000306-.0105-.074586-.0058-.1658111.0054-.1046404-.0014-.1658646-.01833-.1658646s-.02013-.017602-.01188-.039115c.01624-.042305-.03668-.8672733-.05966-.9302423-.0077-.021045-.01174-.1059185-.009-.18860731s-.0045-.15730379-.01613-.16581107-.01535-.10156203-.0083-.20678827l.01276-.19132047 1.951469 1.94442872 1.951468 1.9444287-.116917.0006615c-.06431.0003704-.121701-.00383-.127547-.00931z" fill="#1a1a1a"/><g fill="#b3b3b3"><path d="M2.3449227 2.435112L4.3061323.4870224c.015131 0-.017873 1.2268606-.069859 2.5968828l-.0820962.9665703c-.0333883.033388-.5744586.0889683-1.8481629.1898486l-1.85494227.1427586c-.02969358.0000656.82253927-.8765215 1.89385077-1.9479707zm8.340213169551 11.931410658588l.038762251595-.856160435047.145715829414-2.544086192949c.008577791559-.034178080819.026262541336-.041677430725.121367019304-.051469924352l.777825248534-.103032452869c.010130895706-.00952499988-.054377430565-.016110478964-.157831364678-.016110478964-.096232132121 0-.174967368629-.006487583252-.174967368629-.014414499818s.026506751749-.011321520691.058903657591-.007537979072.257644896754-.009988020708.500550914527-.030598797531l.838480183186-.064752801268.51407906019-.035506818303c.111955790256-.007858124901.113269181906-.007495645739.029101520467.008016874899-.048479603556.008934979054-.096776115447.024876124687-.107325317398.035426649554-.028156164229.028155899645.136204852451.024153812196.700530403674-.017060333118.599061109119-.043751499449.658382014622-.044594726522.658382014622-.009358312382 0 .027209485074-3.706220844974 3.758828477645-3.866649095036 3.893146850952l-.088879096797.074413796979zm1.699749722336-3.570946267512c.297302233754-.023166916375.480191491867-.050512661864.503124516578-.075229242802s-.154534391803-.014435666485-.586184896782.019782895584c-.227204320054.018010187273-.306643877387.032903847502-.306643877387.057488930526s.102770250789.020317353911.38970425759-.002037291641z"/><path d="M10.822719994901 10.770299422645c0-.035206516223 1.280030867207-2.992314695635 1.306902479368-3.019186307796.015007166478-.015007166478.188089643464.15766308968.728649261653.726908567925l1.81792031043 1.969528410604c-.015814145634.015814145634-.653906587595.071503380349-3.055453274006.266664807057l-.798018777446.05608452221zm-.676419983145 3.620063516892l-1.387421007521-1.230619930329-1.106581413142-.9842547501-.061879690887-.054185078484 1.557527980378-.624148371303 1.559513678269-.622234640077c.001084791653.00105833332-.00476249994.111493563179-.013009562336.245424586491l-.060997040898 1.244612948903-.133023767074 2.326420366524c-.006275916588-.000255587497-.165632868747-.13571219829-.354128647622-.301015131624zm3.904604632058-4.885551561366l-1.755383659135-1.887829311633-.087425475982-.103225069533.215661872283-.239494480316 2.141820048016-2.270099306817.216454299356-.227385824219.004622270775 1.366579778617v2.751258909088l-.004622270775 1.384679395055z"/></g><g fill="#333"><path d="M4.895155142495 14.782943217925l-.20054225789-.009929812375 1.017649135096-.901893399054 1.744920182183-1.521202805835.075667128213-.054340124315.363269472507.318786929317 2.41487586541 2.171901585137c-.023161624708.015052145644-5.107778275233.011932708183-5.415839525519-.003320520791zm9.138111582791-5.31419587055l-1.783255396284-1.924918338249c-.022015978889-.027621441319-.011086041527-.046336478583.098737736256-.169043877037l1.594522021578-1.697932034859.820722937577-.865896043258.004622270775 1.361342616183v2.716142615781l-.004622270775 1.354800528765z"/><path d="M10.154237247073 14.380458527162l-2.529086434804-2.263402438151c.008826499889-.00294216663.704499153624-.280794615212 1.545940818024-.617450444304l1.529893574476-.612101363122-.011509374855.175043304045-.06538700751 1.320448087531-.12355009636 2.257519956975c-.010096499873.027291505906-.068492686637-.016562916458-.346300420637-.260057102974z"/></g><path d="M10.840757963424 10.750255647897c0-.028454349642 1.266222263214-2.949928975336 1.293277231623-2.983896976991.009958916541-.012504208176.170615766601.149335329369.688325174662.693400941264l1.824387520766 1.977129889675c0 .008829145722-.01826418727.016195145629-.040585230739.016367124794s-.113638540235.007895166567-.202926153693.017163520617l-3.503616953777.28916735469c-.032373887092 0-.058861588842-.004198937447-.058861588842-.009331854049zm-.450946831819 3.813775291536c-.112022994422-.088503123885-.280523946466-.236224230357-1.190499043335-1.043683870185l-1.547811157583-1.399161628206c.003894666618-.003770312452 2.636162514705-1.059548551235 3.021755941097-1.211998026397.016041687298-.00634206242.019518312254.014697603981.012998979003.078702957342-.004894791605.048047803561-.033027672501.594674846675-.062520511712 1.214726409696l-.122439375541 2.324715920712-.012276666512.1150770798z" fill="gray"/></svg>