<svg xmlns="http://www.w3.org/2000/svg" xmlns:xlink="http://www.w3.org/1999/xlink" width="56.897" height="56.791" viewBox="0 0 15.054 15.026" xmlns:v="https://vecta.io/nano"><defs><linearGradient id="A" gradientUnits="userSpaceOnUse"><stop offset="0%" stop-color="#fff" stop-opacity=".4"/><stop offset="100%" stop-color="#fff" stop-opacity="0"/></linearGradient><linearGradient xlink:href="#A" id="B" x1="175.074" y1="265.974" x2="179.841" y2="265.974"/><linearGradient xlink:href="#A" id="C" x1="178.013" y1="261.207" x2="179.776" y2="261.207"/><linearGradient xlink:href="#A" id="D" x1="178.013" y1="261.207" x2="183.041" y2="261.207"/><linearGradient xlink:href="#A" id="E" x1="183.106" y1="258.203" x2="185.196" y2="258.203"/><linearGradient xlink:href="#A" id="F" x1="185.261" y1="258.203" x2="187.677" y2="258.203"/><linearGradient xlink:href="#A" id="G" x1="187.547" y1="261.011" x2="192.51" y2="261.011"/><linearGradient xlink:href="#A" id="H" x1="190.943" y1="261.011" x2="192.575" y2="261.011"/><linearGradient xlink:href="#A" id="I" x1="190.943" y1="266.04" x2="195.71" y2="266.04"/><linearGradient xlink:href="#A" id="J" x1="190.877" y1="268.521" x2="195.71" y2="268.521"/><linearGradient xlink:href="#A" id="K" x1="190.812" y1="270.741" x2="192.771" y2="270.741"/><linearGradient xlink:href="#A" id="L" x1="187.547" y1="274.072" x2="192.64" y2="274.072"/><linearGradient xlink:href="#A" id="M" x1="185.392" y1="274.072" x2="187.612" y2="274.072"/><linearGradient xlink:href="#A" id="N" x1="182.976" y1="273.941" x2="185.327" y2="273.941"/><linearGradient xlink:href="#A" id="O" x1="177.948" y1="274.072" x2="182.976" y2="274.072"/><linearGradient xlink:href="#A" id="P" x1="178.143" y1="270.676" x2="179.711" y2="270.676"/><linearGradient xlink:href="#A" id="Q" x1="175.009" y1="268.521" x2="179.711" y2="268.521"/></defs><g transform="matrix(.710569 -.291957 .291957 .710569 -202.552173 -129.136128)"><g fill="none" stroke="#000" stroke-width=".1"><path d="M187.677 262.84l3.236 3.288-.037 4.613-3.288 3.236-4.613-.037-3.236-3.288.037-4.613 3.288-3.236z"/><path d="M192.64 261.077l3.076 7.333-3.01 7.36-7.333 3.076-7.36-3.01-3.076-7.333 3.01-7.36 7.333-3.076z"/><path d="M179.841 265.974l-4.767 2.416"/><path d="M178.013 261.207l1.763 4.832m3.265-3.199l-5.028-1.633m7.183-3.004l-2.09 4.636m4.571.001l-2.416-4.636"/><path d="M192.51 261.011l-4.963 1.763m3.396 3.331l1.633-5.094"/><path d="M195.71 268.325l-4.767-2.286m-.066 4.637l4.832-2.155m-2.938 7.314l-1.959-5.094m-3.265 3.331l5.094 1.633"/><path d="M185.392 278.839l2.22-4.767m-4.636-.131l2.351 4.832m-7.379-2.938l5.028-1.763h0v.065"/><path d="M179.711 270.676l-1.567 5.159"/><path d="M175.009 268.521l4.702 2.22"/></g><path d="M179.841 265.974l-4.767 2.416" fill="url(#B)"/><path d="M178.013 261.207l1.763 4.832" fill="url(#C)"/><path d="M183.041 262.84l-5.028-1.633" fill="url(#D)"/><path d="M185.196 258.203l-2.09 4.636" fill="url(#E)"/><path d="M187.677 262.84l-2.416-4.636" fill="url(#F)"/><path d="M192.51 261.011l-4.963 1.763" fill="url(#G)"/><path d="M190.943 266.105l1.633-5.094" fill="url(#H)"/><path d="M195.71 268.325l-4.767-2.286" fill="url(#I)"/><path d="M190.877 270.676l4.832-2.155" fill="url(#J)"/><path d="M192.771 275.835l-1.959-5.094" fill="url(#K)"/><path d="M187.547 274.072l5.094 1.633" fill="url(#L)"/><path d="M185.392 278.839l2.22-4.767" fill="url(#M)"/><path d="M182.976 273.941l2.351 4.832" fill="url(#N)"/><path d="M177.948 275.835l5.028-1.763h0v.065" fill="url(#O)"/><path d="M179.711 270.676l-1.567 5.159" fill="url(#P)"/><path d="M175.009 268.521l4.702 2.22" fill="url(#Q)"/></g><path d="M5.811 11.344l-1.587-.68-.651-1.625-.651-1.625.678-1.59.714-1.619c.02-.016.755-.318 1.633-.671l1.596-.642 1.61.688 1.61.688.645 1.603.635 1.667c-.005.035-.312.769-.682 1.631l-.672 1.567-1.606.646-1.645.644c-.022-.001-.753-.308-1.626-.682z"/><g fill="#999"><path d="M5.998 1.462L4.467.232C4.428.244 4.42.24 4.44.22S5.258.193 7.371.198l2.904.006-1.336 1.199-1.401 1.252-.064.053z"/><path d="M4.35 4.045l.064-1.851.064-1.855a117.13 117.13 0 0 1 2.916 2.463c.009.024-.417.206-1.515.646l-1.528.597z"/></g><path d="M9.15 3.463l-1.556-.71L10.437.225a179.32 179.32 0 0 1 .309 3.861c-.007.052-.119.008-1.596-.623z" fill="#1a1a1a"/><g fill="#4d4d4d"><path d="M4.385 3.45L4.42 2.36l.028-.893.026-.739.015-.369.714.598L7.16 2.612l.198.184c.001.009-.104.064-.232.123L4.387 4.018c-.011 0-.012-.255-.002-.568z"/><path d="M2.295 2.386L4.367.328a116.3 116.3 0 0 1-.056 1.855l-.064 1.889c0 .023-.018.049-.039.057s-.874.078-1.894.155l-1.97.154-.115.014z"/><path d="M1.573 5.922L.313 4.541l1.909-.145L4.14 4.26a126.19 126.19 0 0 1-1.29 3.028c-.01.009-.585-.605-1.277-1.365zM.191 7.469l.047-2.851 2.487 2.734c.046.054.038.064-1.232 1.536L.203 10.37c-.006 0-.012-1.305-.012-2.901z"/><path d="M2.181 10.623l-1.894-.099c-.053-.001-.096-.012-.096-.024s.015-.021.033-.019.611-.666 1.317-1.484L2.844 7.53a204.29 204.29 0 0 1 1.27 3.152c.01.035-.003.044-.061.041l-1.872-.1zM12.64 4.215l-1.776-.105c-.006-.004-.313-3.878-.307-3.884s.931.918 2.063 2.047l2.058 2.051-.132-.003-1.905-.106z"/><path d="M11.487 5.79l-.63-1.568h.108c.09 0 3.481.189 3.766.21.071.005.089.017.089.059 0 .035-.458.533-1.336 1.454l-1.352 1.407c-.009.003-.299-.7-.645-1.562z"/><path d="M13.501 8.962l-1.32-1.443c0-.028.546-.621 1.32-1.433l1.32-1.386.007 1.419v2.829l-.007 1.41z"/><path d="M10.841 10.66l.673-1.574.608-1.425 1.319 1.396 1.299 1.414c-.011.01-.859.083-1.883.163l-1.971.16-.109.014z"/><path d="M2.288 12.747L.113 10.586.114 7.529.115 4.471l2.159-2.178L4.432.115h3.064 3.064l2.175 2.157L14.91 4.43v3.041l.031 3.072c.024.024.022.031-.007.031-.021 0-1.006.976-2.188 2.168l-2.15 2.168-3.065-.001-3.065-.001zm5.248 2.112l3.037.001v-.109l.187-3.914c.011-.011 2.08-.188 2.198-.188.042 0 .473-.033.957-.073l.891-.063c.037.033-.112.052-.847.11l-.763.073c.033.005.367-.016.743-.047l.748-.047c.056.007-.2.274-1.987 2.068l-2.05 2.002.189-3.763c.008-.008.242-.035.519-.058l.402-.046c-.131-.004-.931.064-.947.08-.011.011-.187 3.61-.187 3.831 0 .068.222-.146 2.117-2.041l2.111-2.148c-.006-.027-2.718-2.915-2.737-2.915-.004 0-.313.715-.686 1.589l-.679 1.589-1.618.649-1.619.667c0 .01.677.622 1.506 1.361l1.493 1.357c-.018.018.072.096-1.539-1.339l-1.486-1.256c-.081.043-.114.03-.063-.026.028-.031.037-.06.023-.073s-.747-.329-1.631-.705l-1.633-.703c-.014-.011-.318-.749-.676-1.641l-.666-1.622c-.009 0-.578.651-1.266 1.448L.208 10.444c-.005-.006.581-.693 1.301-1.527L2.819 7.4l-.061-.065-1.314-1.44-1.229-1.4c.014-.014.918-.093 2.01-.176l2.015-.181c.022-.022.049-.556.096-1.942L4.414.272c.007-.007.018-.006.026.001s-.016.866-.051 1.908l-.055 1.905a55.37 55.37 0 0 0 1.579-.621l1.569-.631-.067-.07c-.037-.038-.71-.611-1.496-1.273L4.479.26c-.017-.049.124.066 1.578 1.293l1.419 1.174c.017.001.67-.571 1.453-1.273L10.352.179 7.408.172 4.464.166 2.315 2.315.166 4.464v3.049 3.049l2.15 2.15 2.136 2.166c.033-.011 1.413-.018 3.084-.018zm3.87-5.721l.693-1.62-.654-1.634-.654-1.634-1.613-.689-1.635-.689c-.036 0-3.251 1.297-3.27 1.319-.01.011-.325.742-.7 1.624l-.683 1.604.657 1.636.657 1.636 1.621.692 1.621.692 1.635-.657 1.635-.657zm.981 1.639l.504-.061c-.005-.004-.239.012-.519.036l-.418.047a6.52 6.52 0 0 0 .434-.023zm2.466-4.71l-.007-1.441-1.35 1.418-1.354 1.47c-.003.038.39.47 1.35 1.485l1.354 1.432.007-1.461V6.067zm-1.359-.083l1.36-1.473c.004-.028-.007-.063-.026-.077-.036-.028-3.963-.258-3.987-.233-.008.008.237.645.546 1.415l.739 1.793c.009-.001.624-.642 1.368-1.424zm-9.966-.186l.658-1.569c-.014-.014-3.826.276-3.873.295-.035.013.222.309 1.237 1.425l1.296 1.409c.008.001.315-.701.682-1.559zm9.119-3.546L10.536.17a205.69 205.69 0 0 0 .3 3.924c.005.032.28.054 1.792.143l1.951.108.166.004zm-2.023-.135L10.458.169c-.006-.006-.032.006-.056.028L7.53 2.79c.003.009.732.326 1.62.706l1.622.624c.004-.036-.062-.938-.148-2.003z"/><path d="M9.617 13.962l-1.495-1.334-.577-.515 1.593-.639 1.593-.639-.016.246-.092 1.942-.082 1.727c-.003.017-.419-.338-.924-.788z"/><path d="M4.631 14.798l1.45-1.291 1.459-1.234c.025.012.652.562 1.393 1.223l1.423 1.268.077.067-2.92.001c-2.49.001-2.914-.004-2.883-.035z"/><path d="M4.602 14.649a667.18 667.18 0 0 1-.371-3.862 517.86 517.86 0 0 1 3.149 1.342c.054.024-.043.117-1.345 1.276l-1.433 1.244z"/></g><g fill="#1a1a1a"><path d="M2.371 12.715l-2.066-2.09 3.809.214a108.22 108.22 0 0 1 .37 3.947c-.011.011-.962-.921-2.113-2.071zM4.4 3.669L4.497.593l.018-.198.952.802 1.834 1.614a2.29 2.29 0 0 1-.312.149L4.458 3.978l-.057.018z"/><path d="M2.309 2.398l2.037-2c.012.035-.098 3.585-.113 3.661-.009.045-.035.057-.158.07l-3.769.296c-.014 0 .887-.913 2.002-2.028zm3.73 12.41l-1.384-.013 1.154-1.024 1.647-1.435.076-.054.353.309 1.418 1.256 1.065.947-.109.006c-.262.014-2.959.019-4.222.007zm-1.495-.888l-.296-3.096c0-.017.286.102 2.087.872l1.054.451-.327.308-2.383 2.124-.066.048zm5.648.524l-1.469-1.3-1.151-1.027 1.481-.593 1.576-.631.095-.038-.011.07c-.006.038-.047.862-.09 1.83l-.096 1.861-.018.101z"/><path d="M10.684 14.208l.165-3.175.019-.115.306-.031.459-.054.153-.022-.204-.004c-.131-.002-.191-.012-.168-.027s.05-.017.067-.011.156-.001.308-.017l.315-.029c.021 0 .165-.011.319-.025l.574-.039.31-.025a3.99 3.99 0 0 1 .629-.023c-.016.016-.255.036-.442.037-.056 0-.136.011-.179.024-.073.022-.071.024.038.025.063.001.327-.015.587-.035.579-.045.714-.047.714-.01s-3.734 3.785-3.888 3.908l-.1.08zm1.862-3.432c.171-.015.322-.04.336-.054s-.019-.021-.115-.011l-.536.042c-.049.001-.129.011-.179.024-.086.021-.084.022.047.025.075.001.276-.01.446-.025z"/><path d="M10.811 10.769l1.322-3.053c.04 0 2.589 2.722 2.568 2.742-.011.011-1.149.108-2.674.229l-1.182.101c-.028.007-.042-.001-.035-.019zm3.155-1.338l-1.702-1.836-.064-.083.147-.168 1.528-1.628.92-.967.007 1.394v2.779l-.007 1.385z"/><path d="M12.078 7.193l-1.192-2.96a153.5 153.5 0 0 1 3.915.228c.007.007-.006.037-.028.068-.09.129-1.515 1.643-2.278 2.421l-.363.37z"/><path d="M13.788 4.269l-1.628-.096-1.271-.086a1.73 1.73 0 0 1-.036-.264L10.579.29c.004-.012.914.886 2.023 1.994l2.016 2.015-.231-.004-.6-.026zM2.42 6.817L.378 4.562c.014-.014.434-.048 2.476-.2l1.243-.084c.028.01-1.193 2.905-1.248 2.959-.01.01-.203-.179-.429-.421zM.214 8.659L.217 5.81.23 4.631l1.199 1.315 1.246 1.378c.047.061.046.064-.016.157-.09.133-.275.352-1.352 1.596L.291 10.251l-.067.078z"/><path d="M3.629 10.699c-.003-.008-.758-.053-1.677-.099L.26 10.454c.035-.013.548-.587 1.295-1.449l1.289-1.424c.027.03 1.187 2.906 1.235 3.061.017.054.01.056-.214.064-.127.005-.234.002-.237-.007zm.782-7.131l.029-.992L4.516.53 4.53.423l.821.693 1.931 1.679c0 .009-.09.058-.201.108L4.467 3.956l-.071.018zm6.239.5a80.06 80.06 0 0 1-2.819-1.197l-.23-.107.079-.068.893-.798L10.426.312c.016.04.106 1.095.251 2.962l.045.742c-.007.06-.016.067-.072.052z"/></g><path d="M12.946 4.209l-1.461-.09-.567-.06c-.028-.021-.057-.283-.126-1.137L10.606.374c.007-.029.622.569 1.985 1.928l1.975 1.971-.344-.003-1.275-.061z" fill="#333"/><g fill="#f2f2f2"><path d="M.37 4.384A322.06 322.06 0 0 1 4.18.574l.15-.14-.017.804-.053 1.811-.075 1.036c-.021.016-.128.036-.237.045l-3.316.26c-.147.01-.261.008-.261-.005z"/><path d="M2.535 6.907L.421 4.577c0-.013.021-.023.047-.023a57.19 57.19 0 0 0 .861-.063l2.653-.192c.082 0 .089.005.073.057-.027.091-.517 1.271-.829 1.996l-.325.759c-.022.053-.046.096-.055.096s-.149-.135-.312-.3z"/></g><path d="M4.41 3.556l.029-.992.078-2.046.015-.095.234.198.897.757 1.62 1.418a1.03 1.03 0 0 1-.21.113L4.466 3.956l-.071.018zM2.547 6.893L.939 5.153c-.483-.541-.507-.571-.463-.584a251.51 251.51 0 0 1 3.42-.25c.066-.002.128.002.136.011.024.024-1.139 2.808-1.186 2.837-.01.006-.145-.117-.3-.274z" fill="gray"/><path d="M6.823 2.138L4.654.333 4.497.217h2.86l2.86.011a272.86 272.86 0 0 1-2.691 2.417c-.052.041-.072.027-.703-.507zM.234 9.523l.006-4.25.016-.594.588.645 1.848 2.069c0 .056-.06.127-1.68 2.008l-.704.812-.056.059z" fill="#333"/><g fill="#1a1a1a"><path d="M3.418 10.675l-1.237-.074-1.844-.12-.071-.014.177-.186 1.056-1.19 1.326-1.464c.034 0 .076.099.725 1.717l.507 1.326c-.027.027-.376.029-.639.005zm7.232-6.607a81.59 81.59 0 0 1-2.818-1.196l-.228-.106.062-.059 2.67-2.374.082-.068.013.059c.013.058.138 1.56.245 2.946l.045.755c-.007.052-.018.058-.072.044z"/><path d="M14.296 4.263a8.52 8.52 0 0 0-.559-.029l-.765-.032-.427-.02c-.116-.004-.222-.015-.236-.024s-.104-.014-.2-.01-.187-.002-.204-.012-.113-.018-.214-.017a5.47 5.47 0 0 1-.724-.061c-.059-.014-.073-.077-.103-.466-.009-.116-.027-.211-.039-.211s-.016-.012-.007-.027a6.55 6.55 0 0 0-.063-.917c-.008 0-.011-.075-.006-.166.005-.105-.001-.166-.018-.166s-.02-.018-.012-.039c.016-.042-.037-.867-.06-.93a.84.84 0 0 1-.009-.189c.003-.083-.005-.157-.016-.166s-.015-.102-.008-.207l.013-.191 1.951 1.944 1.951 1.944-.117.001a.48.48 0 0 1-.128-.009z"/></g><g fill="#b3b3b3"><path d="M2.345 2.435L4.306.487c.015 0-.018 1.227-.07 2.597l-.082.967c-.033.033-.574.089-1.848.19l-1.855.143c-.03 0 .823-.877 1.894-1.948zm8.34 11.932l.039-.856.146-2.544c.009-.034.026-.042.121-.051l.778-.103c.01-.01-.054-.016-.158-.016-.096 0-.175-.006-.175-.014s.027-.011.059-.008a6.56 6.56 0 0 0 .501-.031l.838-.065.514-.036c.112-.008.113-.007.029.008-.048.009-.097.025-.107.035-.028.028.136.024.701-.017.599-.044.658-.045.658-.009a261.54 261.54 0 0 1-3.867 3.893l-.089.074zm1.7-3.571c.297-.023.48-.051.503-.075s-.155-.014-.586.02c-.227.018-.307.033-.307.057s.103.02.39-.002z"/><path d="M10.823 10.77a128.99 128.99 0 0 1 1.307-3.019c.015-.015.188.158.729.727l1.818 1.97c-.016.016-.654.072-3.055.267l-.798.056zm-.677 3.62l-1.387-1.23-1.107-.984-.062-.054 1.558-.624 1.56-.622c.001.001-.005.111-.013.245l-.061 1.245-.133 2.326c-.006 0-.166-.136-.354-.301zm3.905-4.885l-1.755-1.888-.087-.103.216-.239 2.142-2.27.216-.227.005 1.367v2.751l-.005 1.385z"/></g><g fill="#333"><path d="M4.895 14.783l-.201-.01 1.018-.902 1.745-1.521.076-.054.363.319 2.415 2.172c-.023.015-5.108.012-5.416-.003zm9.138-5.314L12.25 7.544c-.022-.028-.011-.046.099-.169l1.595-1.698.821-.866.005 1.361v2.716l-.005 1.355z"/><path d="M10.154 14.38l-2.529-2.263c.009-.003.704-.281 1.546-.617l1.53-.612-.012.175-.065 1.32-.124 2.258c-.01.027-.068-.017-.346-.26z"/></g><path d="M10.841 10.75a155.78 155.78 0 0 1 1.293-2.984c.01-.013.171.149.688.693l1.824 1.977c0 .009-.018.016-.041.016a3.76 3.76 0 0 0-.203.017l-3.504.289c-.032 0-.059-.004-.059-.009zm-.451 3.814L9.2 13.52l-1.548-1.399a854.28 854.28 0 0 1 3.022-1.212c.016-.006.02.015.013.079l-.063 1.215-.122 2.325-.012.115z" fill="gray"/></svg>