<svg xmlns="http://www.w3.org/2000/svg" width="56.8981659921" height="56.789455437895" viewBox="0 0 15.054306 15.025543" xmlns:v="https://vecta.io/nano"><g transform="matrix(.7105690000000001 -.2919572 .2919572 .7105690000000001 -202.552173 -129.136128)" fill="#fff" fill-opacity=".510714" stroke="#e86565" stroke-miterlimit="3.9" stroke-width=".348863"><path d="M187.6774798 262.839894l3.23636 3.28806-.0366 4.61346-3.28806 3.23635-4.61346-.0366-3.23635-3.28806.0366-4.61346 3.28806-3.23636z"/><path d="M192.64044 261.07673l3.07565 7.33294-3.01035 7.35998-7.33293 3.07565-7.35999-3.01035-3.07565-7.33293 3.01035-7.35998 7.33293-3.07566z"/><path d="M179.84126 265.97438l-4.76703 2.41617"/><path d="M178.01281 261.20735l1.76315 4.83233"/><path d="M183.04105 262.8399l-5.02824-1.63255m7.1832-3.00388l-2.08966 4.63643m4.57113 0l-2.41617-4.63643"/><path d="M192.50982 261.01145l-4.96294 1.76315m3.39569 3.3304l1.63255-5.09355"/><path d="M195.70961 268.32525l-4.76704-2.28557m-.0653 4.63645l4.83234-2.15498m-2.93858 7.31382l-1.95906-5.09354m-3.26509 3.33039l5.09354 1.63253"/><path d="M185.39192 278.83884l2.22026-4.76702m-4.63643-.1306l2.35087 4.83232m-7.37911-2.93857l5.02824-1.76315h0v.0653"/><path d="M179.71066 270.67613l-1.56725 5.15884"/><path d="M175.00893 268.52115l4.70173 2.22028"/></g></svg>